<svg xmlns="http://www.w3.org/2000/svg" viewBox="0 -0.5 9 7" shape-rendering="crispEdges"><path stroke="#f7e5c2" d="M0 0h1m1 0h1M2 1h1m4 1h1M4 3h1"/><path stroke="#efdcac" d="M1 0h1m0 2h1m5 2h1"/><path stroke="#efdcab" d="M0 1h1m3 0h1m0 1h1m2 0h1M5 3h1"/><path stroke="#f0dcac" d="M1 1h1m1 0h1m4 0h1M2 3h1m4 0h1M3 4h2"/><path stroke="#5f3000" d="M0 2h1M0 3h2M0 4h1m4 0h1M0 5h1m1 0h3m2 0h1M0 6h3m4 0h2"/><path stroke="#f8e6c2" d="M1 2h1m2 0h1m3 1h1"/><path stroke="#f7e5c1" d="M3 2h1"/><path stroke="#e9ddc0" d="M3 3h1"/><path stroke="#5e2f00" d="M1 4h1M1 5h1m2 1h1"/><path stroke="#5f2f00" d="M2 4h1m4 0h1M5 5h1m2 0h1M3 6h1m1 0h1"/></svg>