<svg xmlns="http://www.w3.org/2000/svg" viewBox="0 -0.5 11 6" shape-rendering="crispEdges"><path stroke="#000" d="M0 0h1m9 0h1M0 1h1m9 0h1M0 2h1m9 0h1M0 3h1m9 0h1M0 4h1m9 0h1M0 5h1m9 0h1"/><path stroke="#f1e7c6" d="M1 0h1m1 0h1m1 0h1m1 0h1m1 0h1M1 1h9M2 2h1m1 0h1m1 0h1m1 0h1M1 3h1m7 0h1M1 4h2m1 0h1m1 0h1m1 0h2M1 5h9"/><path stroke="#d0c6a5" d="M2 0h1m1 0h1m1 0h1m1 0h1"/><path stroke="#888" d="M1 2h1m1 0h1m1 0h1m1 0h1m1 0h1M2 3h1m1 0h1m1 0h1m1 0h1M3 4h1m1 0h1m1 0h1"/><path stroke="#ff2729" d="M3 3h1m1 0h1m1 0h1"/></svg>