<svg xmlns="http://www.w3.org/2000/svg" viewBox="0 -0.5 9 6" shape-rendering="crispEdges"><path stroke="#d03b4b" d="M0 0h1m1 0h1m4 0h1M2 1h1m3 0h1M2 2h2m3 0h1M2 3h2m2 0h2"/><path stroke="#d13c4c" d="M1 0h1m6 0h1M4 5h2"/><path stroke="#fff" d="M3 0h4M4 1h2"/><path stroke="#9e151b" d="M0 1h2m6 0h1M0 2h1m7 0h1M8 3h1M2 5h2m3 0h2"/><path stroke="#d03c4c" d="M3 1h1m3 0h1M6 2h1"/><path stroke="#9d141b" d="M1 2h1M0 3h1"/><path stroke="#553935" d="M4 2h2M4 3h2"/><path stroke="#9e151c" d="M1 3h1M0 5h2m4 0h1"/><path stroke="#650a12" d="M0 4h2m1 0h2"/><path stroke="#650911" d="M2 4h1m3 0h3"/><path stroke="#660a12" d="M5 4h1"/></svg>