<svg xmlns="http://www.w3.org/2000/svg" viewBox="0 -0.5 11 6" shape-rendering="crispEdges"><path stroke="#000" d="M0 0h6m1 0h4M0 1h1m4 0h1m1 0h1m2 0h1M0 2h1m5 0h1m3 0h1M0 3h1m9 0h1M0 4h1m9 0h1M0 5h1m9 0h1"/><path stroke="#fff" d="M6 0h1M1 1h1m1 0h1m2 0h1m2 0h1M1 2h1m1 0h1m1 0h1m1 0h1m1 0h1M1 3h1m1 0h1m1 0h1m1 0h1m1 0h1M1 4h1m1 0h1m1 0h1m1 0h1m1 0h1M1 5h1m1 0h1m1 0h1m1 0h1m1 0h1"/><path stroke="#393939" d="M2 1h1m1 0h1m3 0h1M2 2h1m1 0h1m3 0h1M2 3h1m1 0h1m1 0h1m1 0h1M2 4h1m1 0h1m1 0h1m1 0h1M2 5h1m1 0h1m1 0h1m1 0h1"/></svg>