<svg xmlns="http://www.w3.org/2000/svg" viewBox="0 -0.5 11 6" shape-rendering="crispEdges"><path stroke="#000" d="M0 0h11M0 1h1m2 0h1m1 0h1m1 0h1m1 0h2M0 2h1m3 0h1m1 0h1m1 0h1m1 0h1M0 3h1m4 0h1m1 0h1m2 0h1M0 4h1m4 0h1m1 0h1m2 0h1M0 5h1m4 0h1m1 0h1m2 0h1"/><path stroke="#2d2d2d" d="M1 1h2m0 1h1m0 1h1M4 4h1M4 5h1"/><path stroke="#b3b3b3" d="M4 1h1m3 0h1M5 2h1m1 0h1"/><path stroke="#ff2f16" d="M6 1h1M6 3h1M6 4h1M6 5h1"/><path stroke="#404040" d="M1 2h2m6 0h1M1 3h3m4 0h2M1 4h3m4 0h2M1 5h3m4 0h2"/></svg>