<svg xmlns="http://www.w3.org/2000/svg" viewBox="0 -0.5 11 5" shape-rendering="crispEdges"><path stroke="#fff" d="M0 0h11M0 2h2m4 0h1m3 0h1M0 3h2m3 0h2m3 0h1M0 4h11"/><path stroke="#000" d="M0 1h1m9 0h1"/><path stroke="#171717" d="M1 1h1m4 0h1"/><path stroke="#684e17" d="M2 1h1m4 0h1"/><path stroke="#634911" d="M3 1h2m3 0h1"/><path stroke="#694f17" d="M5 1h1"/><path stroke="#624811" d="M9 1h1"/><path stroke="#705c31" d="M2 2h1m2 0h1m1 0h1"/><path stroke="#5a461b" d="M3 2h1m4 0h1"/><path stroke="#6e5a2f" d="M4 2h1"/><path stroke="#6e5a30" d="M9 2h1"/><path stroke="#9b8452" d="M2 3h3m2 0h3"/></svg>