<svg xmlns="http://www.w3.org/2000/svg" viewBox="0 -0.5 13 10" shape-rendering="crispEdges"><path stroke="#c61c01" d="M3 0h1m1 0h1m1 0h1m1 0h1M2 1h1m7 0h1M1 2h1m9 0h1M1 3h1m9 0h1M0 4h1m11 0h1M0 5h1m11 0h1M0 6h1m11 0h1M0 7h1m11 0h1M0 8h1m11 0h1M0 9h1m11 0h1"/><path stroke="#961300" d="M4 0h1m1 0h1m1 0h1M4 1h1m1 0h1m1 0h1M4 2h1m1 0h1m1 0h1M6 3h1"/><path stroke="#e32000" d="M3 1h1m1 0h1m1 0h1m1 0h1M2 2h2m1 0h1m1 0h1m1 0h2M2 3h4m1 0h4M1 4h11m-1 1h1m-1 1h1m-1 1h1m-1 1h1m-1 1h1"/><path stroke="#e72100" d="M1 5h1M1 6h1M1 7h1M1 8h1M1 9h1"/><path stroke="#b0b1ff" d="M2 5h9M2 6h1M2 7h1M2 8h1"/><path stroke="#a6b1fc" d="M2 9h1"/></svg>