<svg xmlns="http://www.w3.org/2000/svg" viewBox="0 -0.5 16 11" shape-rendering="crispEdges"><path stroke="#3be72a" d="M5 0h1M4 1h2M5 2h3M7 3h1M7 4h1M7 5h1"/><path stroke="#09e768" d="M6 0h2M6 1h3M8 2h1M8 3h1M8 4h1M8 5h1"/><path stroke="#0ae8a5" d="M8 0h2M9 1h1M9 2h1M9 3h1M9 4h1M9 5h1"/><path stroke="#0be9d5" d="M10 0h2m-2 1h2m-2 1h1m-1 1h1m-1 1h1m-1 1h1"/><path stroke="#81e729" d="M3 1h1M3 2h2M4 3h3M6 4h1M6 5h1"/><path stroke="#17d1ec" d="M12 1h1m-2 1h2m-2 1h1m-1 1h1m-1 1h1"/><path stroke="#239dec" d="M13 1h1m-1 1h1m-2 1h1m-1 1h1m-1 1h1m-1 1h1"/><path stroke="#b3e829" d="M2 2h1M2 3h2m0 1h2M5 5h1"/><path stroke="#2780ec" d="M14 2h1m-2 1h2m-2 1h1m-1 1h1"/><path stroke="#dfe829" d="M1 3h1M0 4h4M1 5h4M4 6h2"/><path stroke="#2a61ec" d="M14 4h2m-2 1h1m-2 1h1"/><path stroke="#ecdc28" d="M0 5h1M0 6h4"/><path stroke="#2c45ec" d="M15 5h1m-2 1h2m-3 1h2"/><path stroke="#edc629" d="M0 7h5M0 8h1"/><path stroke="#4540ec" d="M15 7h1m-3 1h2"/><path stroke="#eda529" d="M1 8h3"/><path stroke="#ee7729" d="M1 9h1"/><path stroke="#ee6029" d="M2 9h2m-2 1h1"/><path stroke="#ef382a" d="M3 10h1"/></svg>