<svg xmlns="http://www.w3.org/2000/svg" viewBox="0 -0.5 13 7" shape-rendering="crispEdges"><path stroke="#000" d="M1 0h1m9 0h1M0 1h1m1 0h1m2 0h3m2 0h1m1 0h1M0 2h1m2 0h2m3 0h2m2 0h1M0 3h1m11 0h1M1 4h1m9 0h1M1 5h1m9 0h1M1 6h11"/><path stroke="#fff" d="M1 1h1m9 0h1M1 2h2m7 0h2M1 3h3m5 0h3M2 4h1m7 0h1"/><path stroke="#9f9f9f" d="M5 2h3"/><path stroke="#949494" d="M4 3h3m1 0h1"/><path stroke="#969696" d="M7 3h1"/><path stroke="#888" d="M3 4h5m1 0h1M2 5h1m1 0h1m1 0h1m1 0h1m1 0h1"/><path stroke="#8a8a8a" d="M8 4h1"/><path stroke="#636363" d="M3 5h1m1 0h1m1 0h1m1 0h1"/></svg>