<svg xmlns="http://www.w3.org/2000/svg" viewBox="0 -0.5 13 12" shape-rendering="crispEdges"><path stroke="#000" d="M5 0h3m1 0h2M4 1h1m3 0h1m2 0h1M3 2h1m8 0h1M3 3h1m8 0h1M3 4h1m8 0h1M0 5h4m8 0h1M0 6h1m2 0h1m8 0h1M0 7h4m8 0h1M3 8h1m8 0h1M3 9h1m8 0h1m-9 1h1m6 0h1m-7 1h6"/><path stroke="#109933" d="M5 1h3m1 0h2M4 2h8M4 3h1m3 0h1M4 4h1m3 0h1M4 5h1m3 0h1M4 6h8M4 7h2M4 8h3M4 9h8m-7 1h6"/><path stroke="#0c7125" d="M5 3h3m1 0h3M5 5h3m1 0h3"/><path stroke="#fff" d="M5 4h1m1 0h1m1 0h1m1 0h1"/><path stroke="#030303" d="M6 4h1m3 0h1"/><path stroke="#925500" d="M1 6h2"/><path stroke="#941200" d="M6 7h6"/><path stroke="#be1900" d="M7 8h5"/></svg>