<svg xmlns="http://www.w3.org/2000/svg" viewBox="0 -0.5 11 6" shape-rendering="crispEdges"><path stroke="#0060c3" d="M3 0h3M2 2h1M1 3h2M1 4h2"/><path stroke="#0060c2" d="M6 0h2M3 2h1M3 3h1M0 4h1M0 5h2"/><path stroke="#000" d="M5 1h1"/><path stroke="#e4ea17" d="M4 2h2M4 3h1M3 4h3M2 5h3m1 0h1"/><path stroke="#e4eb17" d="M6 2h1m0 3h2"/><path stroke="#d51e03" d="M7 2h1m0 1h2m0 1h1m-1 1h1"/><path stroke="#d61e04" d="M8 2h1M7 3h1m0 1h2M9 5h1"/><path stroke="#e5eb17" d="M5 3h1m0 1h2"/><path stroke="#e5eb18" d="M6 3h1M5 5h1"/></svg>