<svg xmlns="http://www.w3.org/2000/svg" viewBox="0 -0.5 11 7" shape-rendering="crispEdges"><path stroke="#000" d="M6 0h2M5 1h1m1 0h1M4 2h1m2 0h1M3 3h1m3 0h1M2 4h1m4 0h2M1 5h1m7 0h1M0 6h1m9 0h1"/><path stroke="#ab6510" d="M6 1h1"/><path stroke="#a9620f" d="M5 2h2"/><path stroke="#844905" d="M4 3h1"/><path stroke="#a55e0f" d="M5 3h1"/><path stroke="#a55e10" d="M6 3h1"/><path stroke="#834705" d="M3 4h1"/><path stroke="#a25a0f" d="M4 4h3"/><path stroke="#9f5710" d="M5 5h1"/><path stroke="#9f560f" d="M6 5h1"/><path stroke="#9c520f" d="M6 6h1"/></svg>