<svg xmlns="http://www.w3.org/2000/svg" viewBox="0 -0.5 15 21" shape-rendering="crispEdges"><path stroke="#000" d="M3 0h9M2 1h1m9 0h1M1 2h1m11 0h1M0 3h1m13 0h1M0 4h1m13 0h1M0 5h1m13 0h1M0 6h1m13 0h1M0 7h1m13 0h1M0 8h1m13 0h1M0 9h1m13 0h1M0 10h1m13 0h1M0 11h1m13 0h1M0 12h1m13 0h1M0 13h1m13 0h1M0 14h1m13 0h1M0 15h1m13 0h1M0 16h15M0 17h1m13 0h1M0 18h2m11 0h2M1 19h1m11 0h1M1 20h1m11 0h1"/><path stroke="#fff" d="M1 17h13M2 18h1m3 0h7M2 19h1m2 0h8M2 20h11"/><path stroke="#d1204e" d="M3 18h3"/><path stroke="#006598" d="M3 19h1"/><path stroke="#0083c7" d="M4 19h1"/></svg>