<svg xmlns="http://www.w3.org/2000/svg" viewBox="0 -0.5 18 21" shape-rendering="crispEdges"><path stroke="#706107" d="M7 0h3M5 1h2m3 0h2M4 2h1m7 0h1M3 3h1m9 0h1M2 4h1m11 0h1M1 5h1m13 0h1M1 6h1m13 0h1M1 7h1m13 0h1M0 8h1m15 0h1M0 9h1m15 0h1M0 10h1m15 0h1M0 11h1m16 0h1M0 12h1m16 0h1M0 13h1m16 0h1M0 14h1m15 0h1M0 15h1m15 0h1M1 16h1m13 0h1M1 17h1m13 0h1M2 18h1m11 0h1M2 19h1m11 0h1M2 20h1m11 0h1"/><path stroke="#f7d60d" d="M7 1h3M5 2h7M4 3h9M3 4h11M2 5h3m7 0h3M2 6h2m9 0h2M2 7h1m11 0h1M1 8h2m11 0h2M1 9h1m13 0h1M1 10h1m13 0h1M1 11h1m14 0h1M1 12h1m14 0h1M1 13h1m14 0h1M1 14h1m13 0h1M1 15h1m13 0h1M2 16h1m11 0h1M2 17h1m11 0h1M3 18h1m9 0h1M3 19h1m9 0h1M3 20h1m9 0h1"/></svg>