<svg xmlns="http://www.w3.org/2000/svg" viewBox="0 -0.5 11 16" shape-rendering="crispEdges"><path stroke="#000" d="M2 0h7M1 1h1m7 0h1M0 2h1m9 0h1M0 3h1m9 0h1M0 4h1m9 0h1M0 5h1m9 0h1M0 6h1m9 0h1M0 7h1m9 0h1M0 8h1m9 0h1M0 9h1m9 0h1M0 10h1m9 0h1M0 11h1m9 0h1M0 12h1m9 0h1M0 13h1m9 0h1M0 14h1m9 0h1M0 15h11"/><path stroke="#5a5a5a" d="M2 1h7M1 2h9M1 3h9M1 4h9M1 5h9M1 6h9M1 7h9M1 8h9M1 9h9m-9 1h9m-9 1h9m-9 1h9"/><path stroke="#313131" d="M1 13h1m1 0h1m1 0h1m1 0h1m1 0h1m-9 1h1m1 0h1m1 0h1m1 0h1m1 0h1"/><path stroke="#424242" d="M2 13h1m1 0h1m1 0h1m1 0h1m-7 1h1m1 0h1m1 0h1m1 0h1"/></svg>