<svg xmlns="http://www.w3.org/2000/svg" viewBox="0 -0.5 13 19" shape-rendering="crispEdges"><path stroke="#000" d="M2 0h7M1 1h1m7 0h1M0 2h1m9 0h1M0 3h1m9 0h1M0 4h1m9 0h1M0 5h1m9 0h1M0 6h1m9 0h1M0 7h1m3 0h1m4 0h2M0 8h1m2 0h1m4 0h1m1 0h1M0 9h1m5 0h7M0 10h1m11 0h1M0 11h1m9 0h3M0 12h1m9 0h1M0 13h1m9 0h1M0 14h1m9 0h1M0 15h1m9 0h1M0 16h1m9 0h1M0 17h1m9 0h1M0 18h1m9 0h1"/><path stroke="#cafcfa" d="M2 1h7M1 2h9M1 3h9M1 4h9M1 5h9M1 6h9M1 7h2m2 0h3M1 8h2m2 0h3M1 9h5m-5 1h5m-5 1h5m-5 1h9m-9 1h9m-9 1h9m-9 1h9m-9 1h9m-9 1h9m-9 1h9"/><path stroke="#86e3e1" d="M3 7h1m4 0h1M4 8h1m4 0h1m-4 2h6m-6 1h4"/></svg>