<?xml version="1.0" standalone="no"?>
<!DOCTYPE svg PUBLIC "-//W3C//DTD SVG 20010904//EN"
 "http://www.w3.org/TR/2001/REC-SVG-20010904/DTD/svg10.dtd">
<svg version="1.0" xmlns="http://www.w3.org/2000/svg"
 width="325.000000pt" height="325.000000pt" viewBox="0 0 325.000000 325.000000"
 preserveAspectRatio="xMidYMid meet">
<metadata>
Created by potrace 1.14, written by Peter Selinger 2001-2017
</metadata>
<g transform="translate(0.000000,325.000000) scale(0.100000,-0.100000)"
fill="#000000" stroke="none">
<path d="M665 3243 c-256 -37 -492 -211 -599 -443 -69 -151 -66 -92 -66 -1177
0 -958 0 -980 21 -1053 72 -260 278 -465 545 -542 l79 -23 975 0 975 0 78 23
c271 78 471 277 549 548 l23 79 0 970 0 970 -23 79 c-64 221 -208 394 -407
491 -174 85 -90 79 -1165 81 -525 1 -968 -1 -985 -3z m875 -963 l0 -100 -25 0
c-23 0 -25 -3 -25 -50 l0 -50 -225 0 -225 0 0 -25 c0 -20 -5 -25 -25 -25 -20
0 -25 -5 -25 -25 0 -20 -5 -25 -25 -25 -23 0 -25 -3 -25 -50 0 -47 -2 -50 -25
-50 l-25 0 0 -200 0 -200 -25 0 -25 0 0 -100 0 -100 25 0 c20 0 25 -5 25 -25
0 -20 5 -25 25 -25 20 0 25 -5 25 -25 l0 -25 250 0 250 0 0 -75 c0 -73 -1 -75
-25 -75 -24 0 -25 -2 -25 -75 l0 -75 -350 0 -350 0 0 25 c0 20 -5 25 -25 25
-20 0 -25 5 -25 25 0 20 -5 25 -25 25 -20 0 -25 5 -25 25 0 20 -5 25 -25 25
-20 0 -25 5 -25 25 0 20 -5 25 -25 25 l-25 0 0 225 0 225 25 0 25 0 0 175 0
175 25 0 25 0 0 125 0 125 25 0 c20 0 25 5 25 25 0 20 5 25 25 25 20 0 25 5
25 25 0 20 5 25 25 25 20 0 25 5 25 25 0 20 5 25 25 25 20 0 25 5 25 25 0 23
3 25 50 25 47 0 50 2 50 25 l0 25 325 0 325 0 0 -100z m1030 75 c0 -20 5 -25
25 -25 20 0 25 -5 25 -25 0 -20 5 -25 25 -25 20 0 25 -5 25 -25 0 -20 5 -25
25 -25 23 0 25 -3 25 -50 0 -47 2 -50 25 -50 l25 0 0 -275 0 -275 -25 0 -25 0
0 -200 0 -200 -25 0 c-20 0 -25 -5 -25 -25 0 -20 -5 -25 -25 -25 -20 0 -25 -5
-25 -25 0 -20 -5 -25 -25 -25 -20 0 -25 -5 -25 -25 0 -20 -5 -25 -25 -25 -20
0 -25 -5 -25 -25 0 -20 -5 -25 -25 -25 -20 0 -25 -5 -25 -25 0 -20 -5 -25 -25
-25 -20 0 -25 -5 -25 -25 l0 -25 -375 0 -375 0 0 150 0 150 25 0 25 0 0 175 0
175 25 0 25 0 0 175 0 175 25 0 25 0 0 175 0 175 25 0 c24 0 25 2 25 75 l0 75
350 0 350 0 0 -25z"/>
<path d="M2170 1955 l0 -125 -25 0 -25 0 0 -175 0 -175 -25 0 -25 0 0 -150 0
-150 100 0 100 0 0 25 c0 20 5 25 25 25 20 0 25 5 25 25 0 20 5 25 25 25 l25
0 0 125 0 125 25 0 25 0 0 175 0 175 25 0 c24 0 25 2 25 75 0 73 -1 75 -25 75
-20 0 -25 5 -25 25 l0 25 -125 0 -125 0 0 -125z"/>
</g>
</svg>
