<svg xmlns="http://www.w3.org/2000/svg" version="1.1" viewBox="0 0 24 24"><rect x="0" y="0" width="24" height="24" shape-rendering="crispEdges" fill="#ca7d4eff"/><rect x="12" y="1" width="2" height="1" shape-rendering="crispEdges" fill="#000000ff"/><rect x="11" y="2" width="1" height="1" shape-rendering="crispEdges" fill="#000000ff"/><rect x="12" y="2" width="1" height="1" shape-rendering="crispEdges" fill="#ab6510ff"/><rect x="13" y="2" width="1" height="1" shape-rendering="crispEdges" fill="#000000ff"/><rect x="10" y="3" width="1" height="1" shape-rendering="crispEdges" fill="#000000ff"/><rect x="11" y="3" width="2" height="1" shape-rendering="crispEdges" fill="#a9620fff"/><rect x="13" y="3" width="1" height="1" shape-rendering="crispEdges" fill="#000000ff"/><rect x="9" y="4" width="1" height="1" shape-rendering="crispEdges" fill="#000000ff"/><rect x="10" y="4" width="1" height="1" shape-rendering="crispEdges" fill="#844905ff"/><rect x="11" y="4" width="1" height="1" shape-rendering="crispEdges" fill="#a55e0fff"/><rect x="12" y="4" width="1" height="1" shape-rendering="crispEdges" fill="#a55e10ff"/><rect x="13" y="4" width="1" height="1" shape-rendering="crispEdges" fill="#000000ff"/><rect x="8" y="5" width="1" height="1" shape-rendering="crispEdges" fill="#000000ff"/><rect x="9" y="5" width="1" height="1" shape-rendering="crispEdges" fill="#834705ff"/><rect x="10" y="5" width="3" height="1" shape-rendering="crispEdges" fill="#a25a0fff"/><rect x="13" y="5" width="2" height="1" shape-rendering="crispEdges" fill="#000000ff"/><rect x="7" y="6" width="1" height="1" shape-rendering="crispEdges" fill="#000000ff"/><rect x="8" y="6" width="3" height="1" shape-rendering="crispEdges" fill="#97682fff"/><rect x="11" y="6" width="1" height="1" shape-rendering="crispEdges" fill="#9f5710ff"/><rect x="12" y="6" width="1" height="1" shape-rendering="crispEdges" fill="#9f560fff"/><rect x="13" y="6" width="2" height="1" shape-rendering="crispEdges" fill="#97682fff"/><rect x="15" y="6" width="1" height="1" shape-rendering="crispEdges" fill="#000000ff"/><rect x="6" y="7" width="1" height="1" shape-rendering="crispEdges" fill="#000000ff"/><rect x="7" y="7" width="5" height="1" shape-rendering="crispEdges" fill="#97682fff"/><rect x="12" y="7" width="1" height="1" shape-rendering="crispEdges" fill="#9c520fff"/><rect x="13" y="7" width="3" height="1" shape-rendering="crispEdges" fill="#97682fff"/><rect x="16" y="7" width="1" height="1" shape-rendering="crispEdges" fill="#000000ff"/><rect x="6" y="8" width="1" height="1" shape-rendering="crispEdges" fill="#000000ff"/><rect x="7" y="8" width="9" height="1" shape-rendering="crispEdges" fill="#97682fff"/><rect x="16" y="8" width="1" height="1" shape-rendering="crispEdges" fill="#000000ff"/><rect x="6" y="9" width="1" height="1" shape-rendering="crispEdges" fill="#000000ff"/><rect x="7" y="9" width="5" height="1" shape-rendering="crispEdges" fill="#97682fff"/><rect x="12" y="9" width="2" height="1" shape-rendering="crispEdges" fill="#6e4b22ff"/><rect x="14" y="9" width="2" height="1" shape-rendering="crispEdges" fill="#97682fff"/><rect x="16" y="9" width="1" height="1" shape-rendering="crispEdges" fill="#000000ff"/><rect x="6" y="10" width="1" height="1" shape-rendering="crispEdges" fill="#000000ff"/><rect x="7" y="10" width="5" height="1" shape-rendering="crispEdges" fill="#97682fff"/><rect x="12" y="10" width="1" height="1" shape-rendering="crispEdges" fill="#000000ff"/><rect x="13" y="10" width="1" height="1" shape-rendering="crispEdges" fill="#ffffffff"/><rect x="14" y="10" width="2" height="1" shape-rendering="crispEdges" fill="#97682fff"/><rect x="16" y="10" width="1" height="1" shape-rendering="crispEdges" fill="#000000ff"/><rect x="6" y="11" width="1" height="1" shape-rendering="crispEdges" fill="#000000ff"/><rect x="7" y="11" width="9" height="1" shape-rendering="crispEdges" fill="#97682fff"/><rect x="16" y="11" width="1" height="1" shape-rendering="crispEdges" fill="#000000ff"/><rect x="6" y="12" width="1" height="1" shape-rendering="crispEdges" fill="#000000ff"/><rect x="7" y="12" width="2" height="1" shape-rendering="crispEdges" fill="#97682fff"/><rect x="9" y="12" width="2" height="1" shape-rendering="crispEdges" fill="#6e4c23ff"/><rect x="11" y="12" width="3" height="1" shape-rendering="crispEdges" fill="#97682fff"/><rect x="14" y="12" width="2" height="1" shape-rendering="crispEdges" fill="#6e4c23ff"/><rect x="16" y="12" width="1" height="1" shape-rendering="crispEdges" fill="#000000ff"/><rect x="6" y="13" width="1" height="1" shape-rendering="crispEdges" fill="#000000ff"/><rect x="7" y="13" width="2" height="1" shape-rendering="crispEdges" fill="#97682fff"/><rect x="9" y="13" width="1" height="1" shape-rendering="crispEdges" fill="#000000ff"/><rect x="10" y="13" width="1" height="1" shape-rendering="crispEdges" fill="#ffffffff"/><rect x="11" y="13" width="3" height="1" shape-rendering="crispEdges" fill="#97682fff"/><rect x="14" y="13" width="1" height="1" shape-rendering="crispEdges" fill="#000000ff"/><rect x="15" y="13" width="1" height="1" shape-rendering="crispEdges" fill="#ffffffff"/><rect x="16" y="13" width="1" height="1" shape-rendering="crispEdges" fill="#000000ff"/><rect x="6" y="14" width="1" height="1" shape-rendering="crispEdges" fill="#000000ff"/><rect x="7" y="14" width="5" height="1" shape-rendering="crispEdges" fill="#97682fff"/><rect x="12" y="14" width="7" height="1" shape-rendering="crispEdges" fill="#000000ff"/><rect x="6" y="15" width="1" height="1" shape-rendering="crispEdges" fill="#000000ff"/><rect x="7" y="15" width="5" height="1" shape-rendering="crispEdges" fill="#97682fff"/><rect x="12" y="15" width="6" height="1" shape-rendering="crispEdges" fill="#ff9600ff"/><rect x="18" y="15" width="1" height="1" shape-rendering="crispEdges" fill="#000000ff"/><rect x="6" y="16" width="1" height="1" shape-rendering="crispEdges" fill="#000000ff"/><rect x="7" y="16" width="5" height="1" shape-rendering="crispEdges" fill="#97682fff"/><rect x="12" y="16" width="4" height="1" shape-rendering="crispEdges" fill="#ff9600ff"/><rect x="16" y="16" width="4" height="1" shape-rendering="crispEdges" fill="#5a5a5aff"/><rect x="20" y="16" width="1" height="1" shape-rendering="crispEdges" fill="#10b3d3ff"/><rect x="6" y="17" width="1" height="1" shape-rendering="crispEdges" fill="#000000ff"/><rect x="7" y="17" width="9" height="1" shape-rendering="crispEdges" fill="#97682fff"/><rect x="16" y="17" width="1" height="1" shape-rendering="crispEdges" fill="#000000ff"/><rect x="6" y="18" width="1" height="1" shape-rendering="crispEdges" fill="#000000ff"/><rect x="7" y="18" width="9" height="1" shape-rendering="crispEdges" fill="#97682fff"/><rect x="16" y="18" width="1" height="1" shape-rendering="crispEdges" fill="#000000ff"/><rect x="6" y="19" width="1" height="1" shape-rendering="crispEdges" fill="#000000ff"/><rect x="7" y="19" width="9" height="1" shape-rendering="crispEdges" fill="#97682fff"/><rect x="16" y="19" width="1" height="1" shape-rendering="crispEdges" fill="#000000ff"/><rect x="6" y="20" width="1" height="1" shape-rendering="crispEdges" fill="#000000ff"/><rect x="7" y="20" width="9" height="1" shape-rendering="crispEdges" fill="#97682fff"/><rect x="16" y="20" width="1" height="1" shape-rendering="crispEdges" fill="#000000ff"/><rect x="6" y="21" width="1" height="1" shape-rendering="crispEdges" fill="#000000ff"/><rect x="7" y="21" width="9" height="1" shape-rendering="crispEdges" fill="#97682fff"/><rect x="16" y="21" width="1" height="1" shape-rendering="crispEdges" fill="#000000ff"/><rect x="6" y="22" width="1" height="1" shape-rendering="crispEdges" fill="#000000ff"/><rect x="7" y="22" width="9" height="1" shape-rendering="crispEdges" fill="#97682fff"/><rect x="16" y="22" width="1" height="1" shape-rendering="crispEdges" fill="#000000ff"/><rect x="6" y="23" width="1" height="1" shape-rendering="crispEdges" fill="#000000ff"/><rect x="7" y="23" width="9" height="1" shape-rendering="crispEdges" fill="#97682fff"/><rect x="16" y="23" width="1" height="1" shape-rendering="crispEdges" fill="#000000ff"/></svg>