<svg xmlns="http://www.w3.org/2000/svg" version="1.1" viewBox="0 0 24 24"><rect x="0" y="0" width="24" height="24" shape-rendering="crispEdges" fill="#dd949cff"/><rect x="8" y="5" width="7" height="1" shape-rendering="crispEdges" fill="#000000ff"/><rect x="7" y="6" width="1" height="1" shape-rendering="crispEdges" fill="#000000ff"/><rect x="8" y="6" width="7" height="1" shape-rendering="crispEdges" fill="#a11300ff"/><rect x="15" y="6" width="1" height="1" shape-rendering="crispEdges" fill="#000000ff"/><rect x="6" y="7" width="1" height="1" shape-rendering="crispEdges" fill="#000000ff"/><rect x="7" y="7" width="4" height="1" shape-rendering="crispEdges" fill="#b22405ff"/><rect x="11" y="7" width="3" height="1" shape-rendering="crispEdges" fill="#000000ff"/><rect x="14" y="7" width="1" height="1" shape-rendering="crispEdges" fill="#b22405ff"/><rect x="15" y="7" width="2" height="1" shape-rendering="crispEdges" fill="#000000ff"/><rect x="6" y="8" width="1" height="1" shape-rendering="crispEdges" fill="#000000ff"/><rect x="7" y="8" width="3" height="1" shape-rendering="crispEdges" fill="#cc4612ff"/><rect x="10" y="8" width="1" height="1" shape-rendering="crispEdges" fill="#000000ff"/><rect x="11" y="8" width="3" height="1" shape-rendering="crispEdges" fill="#109933ff"/><rect x="14" y="8" width="1" height="1" shape-rendering="crispEdges" fill="#000000ff"/><rect x="15" y="8" width="2" height="1" shape-rendering="crispEdges" fill="#109933ff"/><rect x="17" y="8" width="1" height="1" shape-rendering="crispEdges" fill="#000000ff"/><rect x="6" y="9" width="1" height="1" shape-rendering="crispEdges" fill="#000000ff"/><rect x="7" y="9" width="2" height="1" shape-rendering="crispEdges" fill="#e56c1cff"/><rect x="9" y="9" width="1" height="1" shape-rendering="crispEdges" fill="#000000ff"/><rect x="10" y="9" width="8" height="1" shape-rendering="crispEdges" fill="#109933ff"/><rect x="18" y="9" width="1" height="1" shape-rendering="crispEdges" fill="#000000ff"/><rect x="6" y="10" width="1" height="1" shape-rendering="crispEdges" fill="#000000ff"/><rect x="7" y="10" width="2" height="1" shape-rendering="crispEdges" fill="#f68c20ff"/><rect x="9" y="10" width="1" height="1" shape-rendering="crispEdges" fill="#000000ff"/><rect x="10" y="10" width="1" height="1" shape-rendering="crispEdges" fill="#109933ff"/><rect x="11" y="10" width="3" height="1" shape-rendering="crispEdges" fill="#0c7125ff"/><rect x="14" y="10" width="1" height="1" shape-rendering="crispEdges" fill="#109933ff"/><rect x="15" y="10" width="3" height="1" shape-rendering="crispEdges" fill="#0c7125ff"/><rect x="18" y="10" width="1" height="1" shape-rendering="crispEdges" fill="#000000ff"/><rect x="6" y="11" width="1" height="1" shape-rendering="crispEdges" fill="#000000ff"/><rect x="7" y="11" width="2" height="1" shape-rendering="crispEdges" fill="#feac1fff"/><rect x="9" y="11" width="1" height="1" shape-rendering="crispEdges" fill="#000000ff"/><rect x="10" y="11" width="1" height="1" shape-rendering="crispEdges" fill="#109933ff"/><rect x="11" y="11" width="1" height="1" shape-rendering="crispEdges" fill="#ffffffff"/><rect x="12" y="11" width="1" height="1" shape-rendering="crispEdges" fill="#030303ff"/><rect x="13" y="11" width="1" height="1" shape-rendering="crispEdges" fill="#ffffffff"/><rect x="14" y="11" width="1" height="1" shape-rendering="crispEdges" fill="#109933ff"/><rect x="15" y="11" width="1" height="1" shape-rendering="crispEdges" fill="#ffffffff"/><rect x="16" y="11" width="1" height="1" shape-rendering="crispEdges" fill="#030303ff"/><rect x="17" y="11" width="1" height="1" shape-rendering="crispEdges" fill="#ffffffff"/><rect x="18" y="11" width="1" height="1" shape-rendering="crispEdges" fill="#000000ff"/><rect x="6" y="12" width="4" height="1" shape-rendering="crispEdges" fill="#000000ff"/><rect x="10" y="12" width="1" height="1" shape-rendering="crispEdges" fill="#109933ff"/><rect x="11" y="12" width="3" height="1" shape-rendering="crispEdges" fill="#0c7125ff"/><rect x="14" y="12" width="1" height="1" shape-rendering="crispEdges" fill="#109933ff"/><rect x="15" y="12" width="3" height="1" shape-rendering="crispEdges" fill="#0c7125ff"/><rect x="18" y="12" width="1" height="1" shape-rendering="crispEdges" fill="#000000ff"/><rect x="6" y="13" width="1" height="1" shape-rendering="crispEdges" fill="#000000ff"/><rect x="7" y="13" width="2" height="1" shape-rendering="crispEdges" fill="#925500ff"/><rect x="9" y="13" width="1" height="1" shape-rendering="crispEdges" fill="#000000ff"/><rect x="10" y="13" width="8" height="1" shape-rendering="crispEdges" fill="#109933ff"/><rect x="18" y="13" width="1" height="1" shape-rendering="crispEdges" fill="#000000ff"/><rect x="6" y="14" width="4" height="1" shape-rendering="crispEdges" fill="#000000ff"/><rect x="10" y="14" width="2" height="1" shape-rendering="crispEdges" fill="#109933ff"/><rect x="12" y="14" width="6" height="1" shape-rendering="crispEdges" fill="#941200ff"/><rect x="18" y="14" width="1" height="1" shape-rendering="crispEdges" fill="#000000ff"/><rect x="6" y="15" width="1" height="1" shape-rendering="crispEdges" fill="#000000ff"/><rect x="7" y="15" width="2" height="1" shape-rendering="crispEdges" fill="#8bdb0bff"/><rect x="9" y="15" width="1" height="1" shape-rendering="crispEdges" fill="#000000ff"/><rect x="10" y="15" width="3" height="1" shape-rendering="crispEdges" fill="#109933ff"/><rect x="13" y="15" width="5" height="1" shape-rendering="crispEdges" fill="#be1900ff"/><rect x="18" y="15" width="1" height="1" shape-rendering="crispEdges" fill="#000000ff"/><rect x="6" y="16" width="1" height="1" shape-rendering="crispEdges" fill="#000000ff"/><rect x="7" y="16" width="2" height="1" shape-rendering="crispEdges" fill="#57da0cff"/><rect x="9" y="16" width="1" height="1" shape-rendering="crispEdges" fill="#000000ff"/><rect x="10" y="16" width="8" height="1" shape-rendering="crispEdges" fill="#109933ff"/><rect x="18" y="16" width="1" height="1" shape-rendering="crispEdges" fill="#000000ff"/><rect x="6" y="17" width="1" height="1" shape-rendering="crispEdges" fill="#000000ff"/><rect x="7" y="17" width="3" height="1" shape-rendering="crispEdges" fill="#0bc172ff"/><rect x="10" y="17" width="1" height="1" shape-rendering="crispEdges" fill="#000000ff"/><rect x="11" y="17" width="6" height="1" shape-rendering="crispEdges" fill="#109933ff"/><rect x="17" y="17" width="1" height="1" shape-rendering="crispEdges" fill="#000000ff"/><rect x="6" y="18" width="1" height="1" shape-rendering="crispEdges" fill="#000000ff"/><rect x="7" y="18" width="1" height="1" shape-rendering="crispEdges" fill="#f1e7c6ff"/><rect x="8" y="18" width="1" height="1" shape-rendering="crispEdges" fill="#d0c6a5ff"/><rect x="9" y="18" width="1" height="1" shape-rendering="crispEdges" fill="#f1e7c6ff"/><rect x="10" y="18" width="1" height="1" shape-rendering="crispEdges" fill="#d0c6a5ff"/><rect x="11" y="18" width="6" height="1" shape-rendering="crispEdges" fill="#000000ff"/><rect x="6" y="19" width="1" height="1" shape-rendering="crispEdges" fill="#000000ff"/><rect x="7" y="19" width="9" height="1" shape-rendering="crispEdges" fill="#f1e7c6ff"/><rect x="16" y="19" width="1" height="1" shape-rendering="crispEdges" fill="#000000ff"/><rect x="6" y="20" width="1" height="1" shape-rendering="crispEdges" fill="#000000ff"/><rect x="7" y="20" width="1" height="1" shape-rendering="crispEdges" fill="#888888ff"/><rect x="8" y="20" width="1" height="1" shape-rendering="crispEdges" fill="#f1e7c6ff"/><rect x="9" y="20" width="1" height="1" shape-rendering="crispEdges" fill="#888888ff"/><rect x="10" y="20" width="1" height="1" shape-rendering="crispEdges" fill="#f1e7c6ff"/><rect x="11" y="20" width="1" height="1" shape-rendering="crispEdges" fill="#888888ff"/><rect x="12" y="20" width="1" height="1" shape-rendering="crispEdges" fill="#f1e7c6ff"/><rect x="13" y="20" width="1" height="1" shape-rendering="crispEdges" fill="#888888ff"/><rect x="14" y="20" width="1" height="1" shape-rendering="crispEdges" fill="#f1e7c6ff"/><rect x="15" y="20" width="1" height="1" shape-rendering="crispEdges" fill="#888888ff"/><rect x="16" y="20" width="1" height="1" shape-rendering="crispEdges" fill="#000000ff"/><rect x="6" y="21" width="1" height="1" shape-rendering="crispEdges" fill="#000000ff"/><rect x="7" y="21" width="1" height="1" shape-rendering="crispEdges" fill="#f1e7c6ff"/><rect x="8" y="21" width="1" height="1" shape-rendering="crispEdges" fill="#888888ff"/><rect x="9" y="21" width="1" height="1" shape-rendering="crispEdges" fill="#ff2729ff"/><rect x="10" y="21" width="1" height="1" shape-rendering="crispEdges" fill="#888888ff"/><rect x="11" y="21" width="1" height="1" shape-rendering="crispEdges" fill="#ff2729ff"/><rect x="12" y="21" width="1" height="1" shape-rendering="crispEdges" fill="#888888ff"/><rect x="13" y="21" width="1" height="1" shape-rendering="crispEdges" fill="#ff2729ff"/><rect x="14" y="21" width="1" height="1" shape-rendering="crispEdges" fill="#888888ff"/><rect x="15" y="21" width="1" height="1" shape-rendering="crispEdges" fill="#f1e7c6ff"/><rect x="16" y="21" width="1" height="1" shape-rendering="crispEdges" fill="#000000ff"/><rect x="6" y="22" width="1" height="1" shape-rendering="crispEdges" fill="#000000ff"/><rect x="7" y="22" width="2" height="1" shape-rendering="crispEdges" fill="#f1e7c6ff"/><rect x="9" y="22" width="1" height="1" shape-rendering="crispEdges" fill="#888888ff"/><rect x="10" y="22" width="1" height="1" shape-rendering="crispEdges" fill="#f1e7c6ff"/><rect x="11" y="22" width="1" height="1" shape-rendering="crispEdges" fill="#888888ff"/><rect x="12" y="22" width="1" height="1" shape-rendering="crispEdges" fill="#f1e7c6ff"/><rect x="13" y="22" width="1" height="1" shape-rendering="crispEdges" fill="#888888ff"/><rect x="14" y="22" width="2" height="1" shape-rendering="crispEdges" fill="#f1e7c6ff"/><rect x="16" y="22" width="1" height="1" shape-rendering="crispEdges" fill="#000000ff"/><rect x="6" y="23" width="1" height="1" shape-rendering="crispEdges" fill="#000000ff"/><rect x="7" y="23" width="9" height="1" shape-rendering="crispEdges" fill="#f1e7c6ff"/><rect x="16" y="23" width="1" height="1" shape-rendering="crispEdges" fill="#000000ff"/></svg>