<svg xmlns="http://www.w3.org/2000/svg" version="1.1" viewBox="0 0 24 24"><rect x="0" y="0" width="24" height="24" shape-rendering="crispEdges" fill="#6d9590ff"/><rect x="9" y="3" width="2" height="1" shape-rendering="crispEdges" fill="#692801ff"/><rect x="12" y="3" width="2" height="1" shape-rendering="crispEdges" fill="#692801ff"/><rect x="6" y="4" width="2" height="1" shape-rendering="crispEdges" fill="#692801ff"/><rect x="9" y="4" width="1" height="1" shape-rendering="crispEdges" fill="#b35d2bff"/><rect x="10" y="4" width="2" height="1" shape-rendering="crispEdges" fill="#692801ff"/><rect x="12" y="4" width="1" height="1" shape-rendering="crispEdges" fill="#b35d2bff"/><rect x="13" y="4" width="2" height="1" shape-rendering="crispEdges" fill="#692801ff"/><rect x="7" y="5" width="1" height="1" shape-rendering="crispEdges" fill="#b35d2bff"/><rect x="8" y="5" width="2" height="1" shape-rendering="crispEdges" fill="#692801ff"/><rect x="10" y="5" width="1" height="1" shape-rendering="crispEdges" fill="#b35d2bff"/><rect x="11" y="5" width="2" height="1" shape-rendering="crispEdges" fill="#692801ff"/><rect x="13" y="5" width="1" height="1" shape-rendering="crispEdges" fill="#b35d2bff"/><rect x="14" y="5" width="2" height="1" shape-rendering="crispEdges" fill="#692801ff"/><rect x="4" y="6" width="2" height="1" shape-rendering="crispEdges" fill="#692801ff"/><rect x="6" y="6" width="3" height="1" shape-rendering="crispEdges" fill="#b35d2bff"/><rect x="9" y="6" width="2" height="1" shape-rendering="crispEdges" fill="#692801ff"/><rect x="11" y="6" width="1" height="1" shape-rendering="crispEdges" fill="#b35d2bff"/><rect x="12" y="6" width="2" height="1" shape-rendering="crispEdges" fill="#692801ff"/><rect x="14" y="6" width="1" height="1" shape-rendering="crispEdges" fill="#b35d2bff"/><rect x="15" y="6" width="2" height="1" shape-rendering="crispEdges" fill="#692801ff"/><rect x="5" y="7" width="3" height="1" shape-rendering="crispEdges" fill="#692801ff"/><rect x="8" y="7" width="2" height="1" shape-rendering="crispEdges" fill="#b35d2bff"/><rect x="10" y="7" width="2" height="1" shape-rendering="crispEdges" fill="#692801ff"/><rect x="12" y="7" width="1" height="1" shape-rendering="crispEdges" fill="#b35d2bff"/><rect x="13" y="7" width="4" height="1" shape-rendering="crispEdges" fill="#692801ff"/><rect x="6" y="8" width="1" height="1" shape-rendering="crispEdges" fill="#000000ff"/><rect x="7" y="8" width="1" height="1" shape-rendering="crispEdges" fill="#692801ff"/><rect x="8" y="8" width="1" height="1" shape-rendering="crispEdges" fill="#b35d2bff"/><rect x="9" y="8" width="7" height="1" shape-rendering="crispEdges" fill="#97682fff"/><rect x="16" y="8" width="1" height="1" shape-rendering="crispEdges" fill="#000000ff"/><rect x="6" y="9" width="1" height="1" shape-rendering="crispEdges" fill="#000000ff"/><rect x="7" y="9" width="9" height="1" shape-rendering="crispEdges" fill="#97682fff"/><rect x="16" y="9" width="1" height="1" shape-rendering="crispEdges" fill="#000000ff"/><rect x="6" y="10" width="1" height="1" shape-rendering="crispEdges" fill="#000000ff"/><rect x="7" y="10" width="9" height="1" shape-rendering="crispEdges" fill="#97682fff"/><rect x="16" y="10" width="1" height="1" shape-rendering="crispEdges" fill="#000000ff"/><rect x="6" y="11" width="1" height="1" shape-rendering="crispEdges" fill="#000000ff"/><rect x="7" y="11" width="9" height="1" shape-rendering="crispEdges" fill="#97682fff"/><rect x="16" y="11" width="1" height="1" shape-rendering="crispEdges" fill="#000000ff"/><rect x="6" y="12" width="1" height="1" shape-rendering="crispEdges" fill="#000000ff"/><rect x="7" y="12" width="2" height="1" shape-rendering="crispEdges" fill="#97682fff"/><rect x="9" y="12" width="2" height="1" shape-rendering="crispEdges" fill="#6e4c23ff"/><rect x="11" y="12" width="3" height="1" shape-rendering="crispEdges" fill="#97682fff"/><rect x="14" y="12" width="2" height="1" shape-rendering="crispEdges" fill="#6e4c23ff"/><rect x="16" y="12" width="1" height="1" shape-rendering="crispEdges" fill="#000000ff"/><rect x="6" y="13" width="1" height="1" shape-rendering="crispEdges" fill="#000000ff"/><rect x="7" y="13" width="2" height="1" shape-rendering="crispEdges" fill="#97682fff"/><rect x="9" y="13" width="1" height="1" shape-rendering="crispEdges" fill="#000000ff"/><rect x="10" y="13" width="1" height="1" shape-rendering="crispEdges" fill="#ffffffff"/><rect x="11" y="13" width="3" height="1" shape-rendering="crispEdges" fill="#97682fff"/><rect x="14" y="13" width="1" height="1" shape-rendering="crispEdges" fill="#000000ff"/><rect x="15" y="13" width="1" height="1" shape-rendering="crispEdges" fill="#ffffffff"/><rect x="16" y="13" width="1" height="1" shape-rendering="crispEdges" fill="#000000ff"/><rect x="6" y="14" width="1" height="1" shape-rendering="crispEdges" fill="#000000ff"/><rect x="7" y="14" width="5" height="1" shape-rendering="crispEdges" fill="#97682fff"/><rect x="12" y="14" width="7" height="1" shape-rendering="crispEdges" fill="#000000ff"/><rect x="6" y="15" width="1" height="1" shape-rendering="crispEdges" fill="#000000ff"/><rect x="7" y="15" width="5" height="1" shape-rendering="crispEdges" fill="#97682fff"/><rect x="12" y="15" width="6" height="1" shape-rendering="crispEdges" fill="#ff9600ff"/><rect x="18" y="15" width="1" height="1" shape-rendering="crispEdges" fill="#000000ff"/><rect x="6" y="16" width="1" height="1" shape-rendering="crispEdges" fill="#000000ff"/><rect x="7" y="16" width="5" height="1" shape-rendering="crispEdges" fill="#97682fff"/><rect x="12" y="16" width="4" height="1" shape-rendering="crispEdges" fill="#ff9600ff"/><rect x="16" y="16" width="3" height="1" shape-rendering="crispEdges" fill="#000000ff"/><rect x="6" y="17" width="1" height="1" shape-rendering="crispEdges" fill="#000000ff"/><rect x="7" y="17" width="9" height="1" shape-rendering="crispEdges" fill="#97682fff"/><rect x="16" y="17" width="1" height="1" shape-rendering="crispEdges" fill="#000000ff"/><rect x="6" y="18" width="1" height="1" shape-rendering="crispEdges" fill="#000000ff"/><rect x="7" y="18" width="9" height="1" shape-rendering="crispEdges" fill="#97682fff"/><rect x="16" y="18" width="1" height="1" shape-rendering="crispEdges" fill="#000000ff"/><rect x="3" y="19" width="1" height="1" shape-rendering="crispEdges" fill="#6c948fff"/><rect x="4" y="19" width="1" height="1" shape-rendering="crispEdges" fill="#6e928dff"/><rect x="5" y="19" width="1" height="1" shape-rendering="crispEdges" fill="#d11d21ff"/><rect x="6" y="19" width="3" height="1" shape-rendering="crispEdges" fill="#dfdfdfff"/><rect x="9" y="19" width="4" height="1" shape-rendering="crispEdges" fill="#d11d21ff"/><rect x="13" y="19" width="3" height="1" shape-rendering="crispEdges" fill="#dfdfdfff"/><rect x="16" y="19" width="2" height="1" shape-rendering="crispEdges" fill="#d11d21ff"/><rect x="1" y="20" width="1" height="1" shape-rendering="crispEdges" fill="#6d938eff"/><rect x="3" y="20" width="1" height="1" shape-rendering="crispEdges" fill="#6e938eff"/><rect x="4" y="20" width="1" height="1" shape-rendering="crispEdges" fill="#d11d21ff"/><rect x="5" y="20" width="1" height="1" shape-rendering="crispEdges" fill="#ff2728ff"/><rect x="6" y="20" width="3" height="1" shape-rendering="crispEdges" fill="#ffffffff"/><rect x="9" y="20" width="4" height="1" shape-rendering="crispEdges" fill="#ff2728ff"/><rect x="13" y="20" width="3" height="1" shape-rendering="crispEdges" fill="#ffffffff"/><rect x="16" y="20" width="2" height="1" shape-rendering="crispEdges" fill="#ff2728ff"/><rect x="18" y="20" width="1" height="1" shape-rendering="crispEdges" fill="#d11d21ff"/><rect x="22" y="20" width="1" height="1" shape-rendering="crispEdges" fill="#6d938eff"/><rect x="1" y="21" width="1" height="1" shape-rendering="crispEdges" fill="#6e928dff"/><rect x="3" y="21" width="1" height="1" shape-rendering="crispEdges" fill="#6e938eff"/><rect x="4" y="21" width="1" height="1" shape-rendering="crispEdges" fill="#d11d21ff"/><rect x="5" y="21" width="1" height="1" shape-rendering="crispEdges" fill="#ff2728ff"/><rect x="6" y="21" width="3" height="1" shape-rendering="crispEdges" fill="#ffffffff"/><rect x="9" y="21" width="4" height="1" shape-rendering="crispEdges" fill="#ff2728ff"/><rect x="13" y="21" width="3" height="1" shape-rendering="crispEdges" fill="#ffffffff"/><rect x="16" y="21" width="2" height="1" shape-rendering="crispEdges" fill="#ff2728ff"/><rect x="18" y="21" width="1" height="1" shape-rendering="crispEdges" fill="#d11d21ff"/><rect x="22" y="21" width="1" height="1" shape-rendering="crispEdges" fill="#6d938eff"/><rect x="1" y="22" width="1" height="1" shape-rendering="crispEdges" fill="#6e918cff"/><rect x="5" y="22" width="1" height="1" shape-rendering="crispEdges" fill="#d11d21ff"/><rect x="6" y="22" width="3" height="1" shape-rendering="crispEdges" fill="#dfdfdfff"/><rect x="9" y="22" width="4" height="1" shape-rendering="crispEdges" fill="#d11d21ff"/><rect x="13" y="22" width="3" height="1" shape-rendering="crispEdges" fill="#dfdfdfff"/><rect x="16" y="22" width="2" height="1" shape-rendering="crispEdges" fill="#d11d21ff"/><rect x="22" y="22" width="1" height="1" shape-rendering="crispEdges" fill="#6d938eff"/><rect x="6" y="23" width="1" height="1" shape-rendering="crispEdges" fill="#000000ff"/><rect x="7" y="23" width="9" height="1" shape-rendering="crispEdges" fill="#97682fff"/><rect x="16" y="23" width="1" height="1" shape-rendering="crispEdges" fill="#000000ff"/><rect x="21" y="23" width="1" height="1" shape-rendering="crispEdges" fill="#6c948fff"/></svg>