<svg xmlns="http://www.w3.org/2000/svg" version="1.1" viewBox="0 0 24 24"><rect x="0" y="0" width="24" height="24" shape-rendering="crispEdges" fill="#ca7d4eff"/><rect x="8" y="5" width="7" height="1" shape-rendering="crispEdges" fill="#000000ff"/><rect x="7" y="6" width="1" height="1" shape-rendering="crispEdges" fill="#000000ff"/><rect x="8" y="6" width="7" height="1" shape-rendering="crispEdges" fill="#7c5fb3ff"/><rect x="15" y="6" width="1" height="1" shape-rendering="crispEdges" fill="#000000ff"/><rect x="6" y="7" width="1" height="1" shape-rendering="crispEdges" fill="#000000ff"/><rect x="7" y="7" width="9" height="1" shape-rendering="crispEdges" fill="#7c5fb3ff"/><rect x="16" y="7" width="1" height="1" shape-rendering="crispEdges" fill="#000000ff"/><rect x="6" y="8" width="1" height="1" shape-rendering="crispEdges" fill="#000000ff"/><rect x="7" y="8" width="9" height="1" shape-rendering="crispEdges" fill="#7c5fb3ff"/><rect x="16" y="8" width="1" height="1" shape-rendering="crispEdges" fill="#000000ff"/><rect x="6" y="9" width="1" height="1" shape-rendering="crispEdges" fill="#000000ff"/><rect x="7" y="9" width="9" height="1" shape-rendering="crispEdges" fill="#7c5fb3ff"/><rect x="16" y="9" width="1" height="1" shape-rendering="crispEdges" fill="#000000ff"/><rect x="6" y="10" width="1" height="1" shape-rendering="crispEdges" fill="#000000ff"/><rect x="7" y="10" width="1" height="1" shape-rendering="crispEdges" fill="#7c5fb3ff"/><rect x="8" y="10" width="3" height="1" shape-rendering="crispEdges" fill="#000000ff"/><rect x="11" y="10" width="3" height="1" shape-rendering="crispEdges" fill="#7c5fb3ff"/><rect x="14" y="10" width="3" height="1" shape-rendering="crispEdges" fill="#000000ff"/><rect x="6" y="11" width="1" height="1" shape-rendering="crispEdges" fill="#000000ff"/><rect x="7" y="11" width="9" height="1" shape-rendering="crispEdges" fill="#7c5fb3ff"/><rect x="16" y="11" width="1" height="1" shape-rendering="crispEdges" fill="#000000ff"/><rect x="6" y="12" width="1" height="1" shape-rendering="crispEdges" fill="#000000ff"/><rect x="7" y="12" width="2" height="1" shape-rendering="crispEdges" fill="#7c5fb3ff"/><rect x="9" y="12" width="2" height="1" shape-rendering="crispEdges" fill="#5b4583ff"/><rect x="11" y="12" width="3" height="1" shape-rendering="crispEdges" fill="#7c5fb3ff"/><rect x="14" y="12" width="2" height="1" shape-rendering="crispEdges" fill="#5b4583ff"/><rect x="16" y="12" width="1" height="1" shape-rendering="crispEdges" fill="#000000ff"/><rect x="6" y="13" width="1" height="1" shape-rendering="crispEdges" fill="#000000ff"/><rect x="7" y="13" width="2" height="1" shape-rendering="crispEdges" fill="#7c5fb3ff"/><rect x="9" y="13" width="1" height="1" shape-rendering="crispEdges" fill="#000000ff"/><rect x="10" y="13" width="1" height="1" shape-rendering="crispEdges" fill="#ffffffff"/><rect x="11" y="13" width="3" height="1" shape-rendering="crispEdges" fill="#7c5fb3ff"/><rect x="14" y="13" width="1" height="1" shape-rendering="crispEdges" fill="#000000ff"/><rect x="15" y="13" width="1" height="1" shape-rendering="crispEdges" fill="#ffffffff"/><rect x="16" y="13" width="1" height="1" shape-rendering="crispEdges" fill="#000000ff"/><rect x="6" y="14" width="1" height="1" shape-rendering="crispEdges" fill="#000000ff"/><rect x="7" y="14" width="5" height="1" shape-rendering="crispEdges" fill="#7c5fb3ff"/><rect x="12" y="14" width="7" height="1" shape-rendering="crispEdges" fill="#000000ff"/><rect x="6" y="15" width="1" height="1" shape-rendering="crispEdges" fill="#000000ff"/><rect x="7" y="15" width="5" height="1" shape-rendering="crispEdges" fill="#7c5fb3ff"/><rect x="12" y="15" width="6" height="1" shape-rendering="crispEdges" fill="#ff9600ff"/><rect x="18" y="15" width="1" height="1" shape-rendering="crispEdges" fill="#000000ff"/><rect x="6" y="16" width="1" height="1" shape-rendering="crispEdges" fill="#000000ff"/><rect x="7" y="16" width="5" height="1" shape-rendering="crispEdges" fill="#7c5fb3ff"/><rect x="12" y="16" width="4" height="1" shape-rendering="crispEdges" fill="#ff9600ff"/><rect x="16" y="16" width="3" height="1" shape-rendering="crispEdges" fill="#000000ff"/><rect x="6" y="17" width="1" height="1" shape-rendering="crispEdges" fill="#000000ff"/><rect x="7" y="17" width="9" height="1" shape-rendering="crispEdges" fill="#7c5fb3ff"/><rect x="16" y="17" width="1" height="1" shape-rendering="crispEdges" fill="#000000ff"/><rect x="6" y="18" width="11" height="1" shape-rendering="crispEdges" fill="#000000ff"/><rect x="6" y="19" width="1" height="1" shape-rendering="crispEdges" fill="#000000ff"/><rect x="7" y="19" width="2" height="1" shape-rendering="crispEdges" fill="#ffffffff"/><rect x="9" y="19" width="1" height="1" shape-rendering="crispEdges" fill="#000000ff"/><rect x="10" y="19" width="1" height="1" shape-rendering="crispEdges" fill="#f0f0f0ff"/><rect x="11" y="19" width="1" height="1" shape-rendering="crispEdges" fill="#000000ff"/><rect x="12" y="19" width="1" height="1" shape-rendering="crispEdges" fill="#ff2f16ff"/><rect x="13" y="19" width="1" height="1" shape-rendering="crispEdges" fill="#000000ff"/><rect x="14" y="19" width="1" height="1" shape-rendering="crispEdges" fill="#f0f0f0ff"/><rect x="15" y="19" width="2" height="1" shape-rendering="crispEdges" fill="#000000ff"/><rect x="6" y="20" width="1" height="1" shape-rendering="crispEdges" fill="#000000ff"/><rect x="7" y="20" width="3" height="1" shape-rendering="crispEdges" fill="#ffffffff"/><rect x="10" y="20" width="1" height="1" shape-rendering="crispEdges" fill="#000000ff"/><rect x="11" y="20" width="1" height="1" shape-rendering="crispEdges" fill="#f0f0f0ff"/><rect x="12" y="20" width="1" height="1" shape-rendering="crispEdges" fill="#000000ff"/><rect x="13" y="20" width="1" height="1" shape-rendering="crispEdges" fill="#f0f0f0ff"/><rect x="14" y="20" width="1" height="1" shape-rendering="crispEdges" fill="#000000ff"/><rect x="15" y="20" width="1" height="1" shape-rendering="crispEdges" fill="#ffffffff"/><rect x="16" y="20" width="1" height="1" shape-rendering="crispEdges" fill="#000000ff"/><rect x="6" y="21" width="1" height="1" shape-rendering="crispEdges" fill="#000000ff"/><rect x="7" y="21" width="4" height="1" shape-rendering="crispEdges" fill="#ffffffff"/><rect x="11" y="21" width="1" height="1" shape-rendering="crispEdges" fill="#000000ff"/><rect x="12" y="21" width="1" height="1" shape-rendering="crispEdges" fill="#ff2f16ff"/><rect x="13" y="21" width="1" height="1" shape-rendering="crispEdges" fill="#000000ff"/><rect x="14" y="21" width="2" height="1" shape-rendering="crispEdges" fill="#ffffffff"/><rect x="16" y="21" width="1" height="1" shape-rendering="crispEdges" fill="#000000ff"/><rect x="6" y="22" width="1" height="1" shape-rendering="crispEdges" fill="#000000ff"/><rect x="7" y="22" width="4" height="1" shape-rendering="crispEdges" fill="#ffffffff"/><rect x="11" y="22" width="1" height="1" shape-rendering="crispEdges" fill="#000000ff"/><rect x="12" y="22" width="1" height="1" shape-rendering="crispEdges" fill="#ff2f16ff"/><rect x="13" y="22" width="1" height="1" shape-rendering="crispEdges" fill="#000000ff"/><rect x="14" y="22" width="2" height="1" shape-rendering="crispEdges" fill="#ffffffff"/><rect x="16" y="22" width="1" height="1" shape-rendering="crispEdges" fill="#000000ff"/><rect x="6" y="23" width="1" height="1" shape-rendering="crispEdges" fill="#000000ff"/><rect x="7" y="23" width="4" height="1" shape-rendering="crispEdges" fill="#ffffffff"/><rect x="11" y="23" width="1" height="1" shape-rendering="crispEdges" fill="#000000ff"/><rect x="12" y="23" width="1" height="1" shape-rendering="crispEdges" fill="#ff2f16ff"/><rect x="13" y="23" width="1" height="1" shape-rendering="crispEdges" fill="#000000ff"/><rect x="14" y="23" width="2" height="1" shape-rendering="crispEdges" fill="#ffffffff"/><rect x="16" y="23" width="1" height="1" shape-rendering="crispEdges" fill="#000000ff"/></svg>