<svg xmlns="http://www.w3.org/2000/svg" version="1.1" viewBox="0 0 24 24"><rect x="0" y="0" width="24" height="24" shape-rendering="crispEdges" fill="#6e7c96ff"/><rect x="8" y="5" width="7" height="1" shape-rendering="crispEdges" fill="#000000ff"/><rect x="7" y="6" width="1" height="1" shape-rendering="crispEdges" fill="#000000ff"/><rect x="8" y="6" width="7" height="1" shape-rendering="crispEdges" fill="#a11300ff"/><rect x="15" y="6" width="1" height="1" shape-rendering="crispEdges" fill="#000000ff"/><rect x="6" y="7" width="1" height="1" shape-rendering="crispEdges" fill="#000000ff"/><rect x="7" y="7" width="9" height="1" shape-rendering="crispEdges" fill="#b22405ff"/><rect x="16" y="7" width="1" height="1" shape-rendering="crispEdges" fill="#000000ff"/><rect x="6" y="8" width="1" height="1" shape-rendering="crispEdges" fill="#000000ff"/><rect x="7" y="8" width="9" height="1" shape-rendering="crispEdges" fill="#cc4612ff"/><rect x="16" y="8" width="1" height="1" shape-rendering="crispEdges" fill="#000000ff"/><rect x="6" y="9" width="1" height="1" shape-rendering="crispEdges" fill="#000000ff"/><rect x="7" y="9" width="9" height="1" shape-rendering="crispEdges" fill="#e56c1cff"/><rect x="16" y="9" width="1" height="1" shape-rendering="crispEdges" fill="#000000ff"/><rect x="6" y="10" width="1" height="1" shape-rendering="crispEdges" fill="#000000ff"/><rect x="7" y="10" width="9" height="1" shape-rendering="crispEdges" fill="#f68c20ff"/><rect x="16" y="10" width="1" height="1" shape-rendering="crispEdges" fill="#000000ff"/><rect x="6" y="11" width="1" height="1" shape-rendering="crispEdges" fill="#000000ff"/><rect x="7" y="11" width="2" height="1" shape-rendering="crispEdges" fill="#feac1fff"/><rect x="9" y="11" width="2" height="1" shape-rendering="crispEdges" fill="#a06c48ff"/><rect x="11" y="11" width="5" height="1" shape-rendering="crispEdges" fill="#feac1fff"/><rect x="16" y="11" width="1" height="1" shape-rendering="crispEdges" fill="#000000ff"/><rect x="6" y="12" width="1" height="1" shape-rendering="crispEdges" fill="#000000ff"/><rect x="7" y="12" width="1" height="1" shape-rendering="crispEdges" fill="#fdc31fff"/><rect x="8" y="12" width="1" height="1" shape-rendering="crispEdges" fill="#a07848ff"/><rect x="9" y="12" width="2" height="1" shape-rendering="crispEdges" fill="#3a2971ff"/><rect x="11" y="12" width="1" height="1" shape-rendering="crispEdges" fill="#a07848ff"/><rect x="12" y="12" width="2" height="1" shape-rendering="crispEdges" fill="#fdc31fff"/><rect x="14" y="12" width="2" height="1" shape-rendering="crispEdges" fill="#b98f17ff"/><rect x="16" y="12" width="1" height="1" shape-rendering="crispEdges" fill="#000000ff"/><rect x="6" y="13" width="1" height="1" shape-rendering="crispEdges" fill="#000000ff"/><rect x="7" y="13" width="1" height="1" shape-rendering="crispEdges" fill="#fcd41fff"/><rect x="8" y="13" width="1" height="1" shape-rendering="crispEdges" fill="#9f8248ff"/><rect x="9" y="13" width="1" height="1" shape-rendering="crispEdges" fill="#160f41ff"/><rect x="10" y="13" width="1" height="1" shape-rendering="crispEdges" fill="#42358bff"/><rect x="11" y="13" width="1" height="1" shape-rendering="crispEdges" fill="#9f8248ff"/><rect x="12" y="13" width="2" height="1" shape-rendering="crispEdges" fill="#fcd41fff"/><rect x="14" y="13" width="1" height="1" shape-rendering="crispEdges" fill="#000000ff"/><rect x="15" y="13" width="1" height="1" shape-rendering="crispEdges" fill="#ffffffff"/><rect x="16" y="13" width="1" height="1" shape-rendering="crispEdges" fill="#000000ff"/><rect x="6" y="14" width="1" height="1" shape-rendering="crispEdges" fill="#000000ff"/><rect x="7" y="14" width="2" height="1" shape-rendering="crispEdges" fill="#c9db0dff"/><rect x="9" y="14" width="2" height="1" shape-rendering="crispEdges" fill="#83863eff"/><rect x="11" y="14" width="1" height="1" shape-rendering="crispEdges" fill="#c9db0dff"/><rect x="12" y="14" width="7" height="1" shape-rendering="crispEdges" fill="#000000ff"/><rect x="6" y="15" width="1" height="1" shape-rendering="crispEdges" fill="#000000ff"/><rect x="7" y="15" width="5" height="1" shape-rendering="crispEdges" fill="#8bdb0bff"/><rect x="12" y="15" width="6" height="1" shape-rendering="crispEdges" fill="#ff9600ff"/><rect x="18" y="15" width="1" height="1" shape-rendering="crispEdges" fill="#000000ff"/><rect x="6" y="16" width="1" height="1" shape-rendering="crispEdges" fill="#000000ff"/><rect x="7" y="16" width="5" height="1" shape-rendering="crispEdges" fill="#57da0cff"/><rect x="12" y="16" width="4" height="1" shape-rendering="crispEdges" fill="#ff9600ff"/><rect x="16" y="16" width="3" height="1" shape-rendering="crispEdges" fill="#000000ff"/><rect x="6" y="17" width="1" height="1" shape-rendering="crispEdges" fill="#000000ff"/><rect x="7" y="17" width="1" height="1" shape-rendering="crispEdges" fill="#f7e5c2ff"/><rect x="8" y="17" width="1" height="1" shape-rendering="crispEdges" fill="#efdcacff"/><rect x="9" y="17" width="1" height="1" shape-rendering="crispEdges" fill="#f7e5c2ff"/><rect x="10" y="17" width="6" height="1" shape-rendering="crispEdges" fill="#0bc172ff"/><rect x="16" y="17" width="1" height="1" shape-rendering="crispEdges" fill="#000000ff"/><rect x="6" y="18" width="1" height="1" shape-rendering="crispEdges" fill="#000000ff"/><rect x="7" y="18" width="1" height="1" shape-rendering="crispEdges" fill="#efdcabff"/><rect x="8" y="18" width="1" height="1" shape-rendering="crispEdges" fill="#f0dcacff"/><rect x="9" y="18" width="1" height="1" shape-rendering="crispEdges" fill="#f7e5c2ff"/><rect x="10" y="18" width="1" height="1" shape-rendering="crispEdges" fill="#f0dcacff"/><rect x="11" y="18" width="1" height="1" shape-rendering="crispEdges" fill="#efdcabff"/><rect x="12" y="18" width="3" height="1" shape-rendering="crispEdges" fill="#00b2acff"/><rect x="15" y="18" width="1" height="1" shape-rendering="crispEdges" fill="#f0dcacff"/><rect x="16" y="18" width="1" height="1" shape-rendering="crispEdges" fill="#000000ff"/><rect x="6" y="19" width="1" height="1" shape-rendering="crispEdges" fill="#000000ff"/><rect x="7" y="19" width="1" height="1" shape-rendering="crispEdges" fill="#5f3000ff"/><rect x="8" y="19" width="1" height="1" shape-rendering="crispEdges" fill="#f8e6c2ff"/><rect x="9" y="19" width="1" height="1" shape-rendering="crispEdges" fill="#efdcacff"/><rect x="10" y="19" width="1" height="1" shape-rendering="crispEdges" fill="#f7e5c1ff"/><rect x="11" y="19" width="1" height="1" shape-rendering="crispEdges" fill="#f8e6c2ff"/><rect x="12" y="19" width="1" height="1" shape-rendering="crispEdges" fill="#efdcabff"/><rect x="13" y="19" width="1" height="1" shape-rendering="crispEdges" fill="#00a4d6ff"/><rect x="14" y="19" width="1" height="1" shape-rendering="crispEdges" fill="#f7e5c2ff"/><rect x="15" y="19" width="1" height="1" shape-rendering="crispEdges" fill="#efdcabff"/><rect x="16" y="19" width="1" height="1" shape-rendering="crispEdges" fill="#000000ff"/><rect x="6" y="20" width="1" height="1" shape-rendering="crispEdges" fill="#000000ff"/><rect x="7" y="20" width="2" height="1" shape-rendering="crispEdges" fill="#5f3000ff"/><rect x="9" y="20" width="1" height="1" shape-rendering="crispEdges" fill="#f0dcacff"/><rect x="10" y="20" width="1" height="1" shape-rendering="crispEdges" fill="#e9ddc0ff"/><rect x="11" y="20" width="1" height="1" shape-rendering="crispEdges" fill="#f7e5c2ff"/><rect x="12" y="20" width="1" height="1" shape-rendering="crispEdges" fill="#efdcabff"/><rect x="13" y="20" width="1" height="1" shape-rendering="crispEdges" fill="#0089ebff"/><rect x="14" y="20" width="1" height="1" shape-rendering="crispEdges" fill="#f0dcacff"/><rect x="15" y="20" width="1" height="1" shape-rendering="crispEdges" fill="#f8e6c2ff"/><rect x="16" y="20" width="1" height="1" shape-rendering="crispEdges" fill="#000000ff"/><rect x="6" y="21" width="1" height="1" shape-rendering="crispEdges" fill="#000000ff"/><rect x="7" y="21" width="1" height="1" shape-rendering="crispEdges" fill="#5f3000ff"/><rect x="8" y="21" width="1" height="1" shape-rendering="crispEdges" fill="#5e2f00ff"/><rect x="9" y="21" width="1" height="1" shape-rendering="crispEdges" fill="#5f2f00ff"/><rect x="10" y="21" width="2" height="1" shape-rendering="crispEdges" fill="#f0dcacff"/><rect x="12" y="21" width="1" height="1" shape-rendering="crispEdges" fill="#5f3000ff"/><rect x="13" y="21" width="1" height="1" shape-rendering="crispEdges" fill="#2653ebff"/><rect x="14" y="21" width="1" height="1" shape-rendering="crispEdges" fill="#5f2f00ff"/><rect x="15" y="21" width="1" height="1" shape-rendering="crispEdges" fill="#efdcacff"/><rect x="16" y="21" width="1" height="1" shape-rendering="crispEdges" fill="#000000ff"/><rect x="6" y="22" width="1" height="1" shape-rendering="crispEdges" fill="#000000ff"/><rect x="7" y="22" width="1" height="1" shape-rendering="crispEdges" fill="#5f3000ff"/><rect x="8" y="22" width="1" height="1" shape-rendering="crispEdges" fill="#5e2f00ff"/><rect x="9" y="22" width="3" height="1" shape-rendering="crispEdges" fill="#5f3000ff"/><rect x="12" y="22" width="1" height="1" shape-rendering="crispEdges" fill="#5f2f00ff"/><rect x="13" y="22" width="1" height="1" shape-rendering="crispEdges" fill="#3d3ee5ff"/><rect x="14" y="22" width="1" height="1" shape-rendering="crispEdges" fill="#5f3000ff"/><rect x="15" y="22" width="1" height="1" shape-rendering="crispEdges" fill="#5f2f00ff"/><rect x="16" y="22" width="1" height="1" shape-rendering="crispEdges" fill="#000000ff"/><rect x="6" y="23" width="1" height="1" shape-rendering="crispEdges" fill="#000000ff"/><rect x="7" y="23" width="3" height="1" shape-rendering="crispEdges" fill="#5f3000ff"/><rect x="10" y="23" width="1" height="1" shape-rendering="crispEdges" fill="#5f2f00ff"/><rect x="11" y="23" width="1" height="1" shape-rendering="crispEdges" fill="#5e2f00ff"/><rect x="12" y="23" width="1" height="1" shape-rendering="crispEdges" fill="#5f2f00ff"/><rect x="13" y="23" width="1" height="1" shape-rendering="crispEdges" fill="#4934e0ff"/><rect x="14" y="23" width="2" height="1" shape-rendering="crispEdges" fill="#5f3000ff"/><rect x="16" y="23" width="1" height="1" shape-rendering="crispEdges" fill="#000000ff"/></svg>