<svg xmlns="http://www.w3.org/2000/svg" version="1.1" viewBox="0 0 24 24"><rect x="0" y="0" width="24" height="24" shape-rendering="crispEdges" fill="#6d9590ff"/><rect x="2" y="3" width="2" height="1" shape-rendering="crispEdges" fill="#ff5000ff"/><rect x="2" y="4" width="1" height="1" shape-rendering="crispEdges" fill="#ff5000ff"/><rect x="3" y="4" width="1" height="1" shape-rendering="crispEdges" fill="#1b1813ff"/><rect x="4" y="4" width="1" height="1" shape-rendering="crispEdges" fill="#fdfbf7ff"/><rect x="5" y="4" width="1" height="1" shape-rendering="crispEdges" fill="#ff5000ff"/><rect x="3" y="5" width="1" height="1" shape-rendering="crispEdges" fill="#fdfbf7ff"/><rect x="4" y="5" width="1" height="1" shape-rendering="crispEdges" fill="#1b1813ff"/><rect x="5" y="5" width="1" height="1" shape-rendering="crispEdges" fill="#ff5000ff"/><rect x="6" y="5" width="1" height="1" shape-rendering="crispEdges" fill="#fdfbf7ff"/><rect x="8" y="5" width="7" height="1" shape-rendering="crispEdges" fill="#000000ff"/><rect x="3" y="6" width="2" height="1" shape-rendering="crispEdges" fill="#ff5000ff"/><rect x="5" y="6" width="1" height="1" shape-rendering="crispEdges" fill="#1b1813ff"/><rect x="6" y="6" width="1" height="1" shape-rendering="crispEdges" fill="#fdfbf7ff"/><rect x="7" y="6" width="1" height="1" shape-rendering="crispEdges" fill="#000000ff"/><rect x="8" y="6" width="7" height="1" shape-rendering="crispEdges" fill="#97682fff"/><rect x="15" y="6" width="1" height="1" shape-rendering="crispEdges" fill="#000000ff"/><rect x="4" y="7" width="2" height="1" shape-rendering="crispEdges" fill="#fdfbf7ff"/><rect x="6" y="7" width="1" height="1" shape-rendering="crispEdges" fill="#1b1813ff"/><rect x="7" y="7" width="1" height="1" shape-rendering="crispEdges" fill="#fdfbf7ff"/><rect x="8" y="7" width="8" height="1" shape-rendering="crispEdges" fill="#97682fff"/><rect x="16" y="7" width="1" height="1" shape-rendering="crispEdges" fill="#000000ff"/><rect x="6" y="8" width="1" height="1" shape-rendering="crispEdges" fill="#fdfbf7ff"/><rect x="7" y="8" width="1" height="1" shape-rendering="crispEdges" fill="#1b1813ff"/><rect x="8" y="8" width="9" height="1" shape-rendering="crispEdges" fill="#63450bff"/><rect x="6" y="9" width="11" height="1" shape-rendering="crispEdges" fill="#63450bff"/><rect x="6" y="10" width="1" height="1" shape-rendering="crispEdges" fill="#000000ff"/><rect x="7" y="10" width="9" height="1" shape-rendering="crispEdges" fill="#97682fff"/><rect x="16" y="10" width="1" height="1" shape-rendering="crispEdges" fill="#000000ff"/><rect x="6" y="11" width="1" height="1" shape-rendering="crispEdges" fill="#000000ff"/><rect x="7" y="11" width="2" height="1" shape-rendering="crispEdges" fill="#97682fff"/><rect x="9" y="11" width="2" height="1" shape-rendering="crispEdges" fill="#674651ff"/><rect x="11" y="11" width="5" height="1" shape-rendering="crispEdges" fill="#97682fff"/><rect x="16" y="11" width="1" height="1" shape-rendering="crispEdges" fill="#000000ff"/><rect x="6" y="12" width="1" height="1" shape-rendering="crispEdges" fill="#000000ff"/><rect x="7" y="12" width="1" height="1" shape-rendering="crispEdges" fill="#97682fff"/><rect x="8" y="12" width="1" height="1" shape-rendering="crispEdges" fill="#674651ff"/><rect x="9" y="12" width="2" height="1" shape-rendering="crispEdges" fill="#322172ff"/><rect x="11" y="12" width="1" height="1" shape-rendering="crispEdges" fill="#674651ff"/><rect x="12" y="12" width="2" height="1" shape-rendering="crispEdges" fill="#97682fff"/><rect x="14" y="12" width="2" height="1" shape-rendering="crispEdges" fill="#6e4c23ff"/><rect x="16" y="12" width="1" height="1" shape-rendering="crispEdges" fill="#000000ff"/><rect x="6" y="13" width="1" height="1" shape-rendering="crispEdges" fill="#000000ff"/><rect x="7" y="13" width="1" height="1" shape-rendering="crispEdges" fill="#97682fff"/><rect x="8" y="13" width="1" height="1" shape-rendering="crispEdges" fill="#674651ff"/><rect x="9" y="13" width="1" height="1" shape-rendering="crispEdges" fill="#160f41ff"/><rect x="10" y="13" width="1" height="1" shape-rendering="crispEdges" fill="#42358bff"/><rect x="11" y="13" width="1" height="1" shape-rendering="crispEdges" fill="#674651ff"/><rect x="12" y="13" width="2" height="1" shape-rendering="crispEdges" fill="#97682fff"/><rect x="14" y="13" width="1" height="1" shape-rendering="crispEdges" fill="#000000ff"/><rect x="15" y="13" width="1" height="1" shape-rendering="crispEdges" fill="#ffffffff"/><rect x="16" y="13" width="1" height="1" shape-rendering="crispEdges" fill="#000000ff"/><rect x="6" y="14" width="1" height="1" shape-rendering="crispEdges" fill="#000000ff"/><rect x="7" y="14" width="2" height="1" shape-rendering="crispEdges" fill="#97682fff"/><rect x="9" y="14" width="2" height="1" shape-rendering="crispEdges" fill="#674651ff"/><rect x="11" y="14" width="1" height="1" shape-rendering="crispEdges" fill="#97682fff"/><rect x="12" y="14" width="7" height="1" shape-rendering="crispEdges" fill="#000000ff"/><rect x="6" y="15" width="1" height="1" shape-rendering="crispEdges" fill="#000000ff"/><rect x="7" y="15" width="5" height="1" shape-rendering="crispEdges" fill="#97682fff"/><rect x="12" y="15" width="6" height="1" shape-rendering="crispEdges" fill="#ff9600ff"/><rect x="18" y="15" width="1" height="1" shape-rendering="crispEdges" fill="#000000ff"/><rect x="6" y="16" width="1" height="1" shape-rendering="crispEdges" fill="#000000ff"/><rect x="7" y="16" width="5" height="1" shape-rendering="crispEdges" fill="#97682fff"/><rect x="12" y="16" width="4" height="1" shape-rendering="crispEdges" fill="#ff9600ff"/><rect x="16" y="16" width="4" height="1" shape-rendering="crispEdges" fill="#5a5a5aff"/><rect x="20" y="16" width="1" height="1" shape-rendering="crispEdges" fill="#10b3d3ff"/><rect x="6" y="17" width="1" height="1" shape-rendering="crispEdges" fill="#000000ff"/><rect x="7" y="17" width="9" height="1" shape-rendering="crispEdges" fill="#97682fff"/><rect x="16" y="17" width="1" height="1" shape-rendering="crispEdges" fill="#000000ff"/><rect x="6" y="18" width="1" height="1" shape-rendering="crispEdges" fill="#000000ff"/><rect x="7" y="18" width="9" height="1" shape-rendering="crispEdges" fill="#97682fff"/><rect x="16" y="18" width="1" height="1" shape-rendering="crispEdges" fill="#000000ff"/><rect x="6" y="19" width="1" height="1" shape-rendering="crispEdges" fill="#000000ff"/><rect x="7" y="19" width="9" height="1" shape-rendering="crispEdges" fill="#97682fff"/><rect x="16" y="19" width="1" height="1" shape-rendering="crispEdges" fill="#000000ff"/><rect x="6" y="20" width="1" height="1" shape-rendering="crispEdges" fill="#000000ff"/><rect x="7" y="20" width="9" height="1" shape-rendering="crispEdges" fill="#97682fff"/><rect x="16" y="20" width="1" height="1" shape-rendering="crispEdges" fill="#000000ff"/><rect x="6" y="21" width="1" height="1" shape-rendering="crispEdges" fill="#000000ff"/><rect x="7" y="21" width="9" height="1" shape-rendering="crispEdges" fill="#97682fff"/><rect x="16" y="21" width="1" height="1" shape-rendering="crispEdges" fill="#000000ff"/><rect x="6" y="22" width="1" height="1" shape-rendering="crispEdges" fill="#000000ff"/><rect x="7" y="22" width="9" height="1" shape-rendering="crispEdges" fill="#97682fff"/><rect x="16" y="22" width="1" height="1" shape-rendering="crispEdges" fill="#000000ff"/><rect x="6" y="23" width="1" height="1" shape-rendering="crispEdges" fill="#000000ff"/><rect x="7" y="23" width="9" height="1" shape-rendering="crispEdges" fill="#97682fff"/><rect x="16" y="23" width="1" height="1" shape-rendering="crispEdges" fill="#000000ff"/></svg>