<svg xmlns="http://www.w3.org/2000/svg" version="1.1" viewBox="0 0 24 24"><rect x="0" y="0" width="24" height="24" shape-rendering="crispEdges" fill="#908aa0ff"/><rect x="8" y="3" width="7" height="1" shape-rendering="crispEdges" fill="#fffef9ff"/><rect x="7" y="4" width="9" height="1" shape-rendering="crispEdges" fill="#fffef9ff"/><rect x="6" y="5" width="11" height="1" shape-rendering="crispEdges" fill="#fffef9ff"/><rect x="5" y="6" width="13" height="1" shape-rendering="crispEdges" fill="#fffef9ff"/><rect x="4" y="7" width="1" height="1" shape-rendering="crispEdges" fill="#9a9995ff"/><rect x="5" y="7" width="14" height="1" shape-rendering="crispEdges" fill="#a4a39fff"/><rect x="2" y="8" width="19" height="1" shape-rendering="crispEdges" fill="#e8e7e2ff"/><rect x="2" y="9" width="4" height="1" shape-rendering="crispEdges" fill="#423f49ff"/><rect x="6" y="9" width="1" height="1" shape-rendering="crispEdges" fill="#000000ff"/><rect x="7" y="9" width="9" height="1" shape-rendering="crispEdges" fill="#142c10ff"/><rect x="16" y="9" width="1" height="1" shape-rendering="crispEdges" fill="#000000ff"/><rect x="17" y="9" width="4" height="1" shape-rendering="crispEdges" fill="#423f49ff"/><rect x="2" y="10" width="4" height="1" shape-rendering="crispEdges" fill="#423f49ff"/><rect x="6" y="10" width="1" height="1" shape-rendering="crispEdges" fill="#000000ff"/><rect x="7" y="10" width="9" height="1" shape-rendering="crispEdges" fill="#142c10ff"/><rect x="16" y="10" width="1" height="1" shape-rendering="crispEdges" fill="#000000ff"/><rect x="17" y="10" width="4" height="1" shape-rendering="crispEdges" fill="#423f49ff"/><rect x="2" y="11" width="4" height="1" shape-rendering="crispEdges" fill="#423f49ff"/><rect x="6" y="11" width="1" height="1" shape-rendering="crispEdges" fill="#000000ff"/><rect x="7" y="11" width="2" height="1" shape-rendering="crispEdges" fill="#142c10ff"/><rect x="9" y="11" width="2" height="1" shape-rendering="crispEdges" fill="#000000ff"/><rect x="11" y="11" width="5" height="1" shape-rendering="crispEdges" fill="#142c10ff"/><rect x="16" y="11" width="1" height="1" shape-rendering="crispEdges" fill="#000000ff"/><rect x="17" y="11" width="4" height="1" shape-rendering="crispEdges" fill="#423f49ff"/><rect x="2" y="12" width="4" height="1" shape-rendering="crispEdges" fill="#423f49ff"/><rect x="6" y="12" width="1" height="1" shape-rendering="crispEdges" fill="#000000ff"/><rect x="7" y="12" width="1" height="1" shape-rendering="crispEdges" fill="#142c10ff"/><rect x="8" y="12" width="1" height="1" shape-rendering="crispEdges" fill="#000000ff"/><rect x="9" y="12" width="2" height="1" shape-rendering="crispEdges" fill="#1d3b3aff"/><rect x="11" y="12" width="1" height="1" shape-rendering="crispEdges" fill="#000000ff"/><rect x="12" y="12" width="2" height="1" shape-rendering="crispEdges" fill="#142c10ff"/><rect x="14" y="12" width="2" height="1" shape-rendering="crispEdges" fill="#0e200bff"/><rect x="16" y="12" width="1" height="1" shape-rendering="crispEdges" fill="#000000ff"/><rect x="17" y="12" width="4" height="1" shape-rendering="crispEdges" fill="#423f49ff"/><rect x="2" y="13" width="4" height="1" shape-rendering="crispEdges" fill="#423f49ff"/><rect x="6" y="13" width="1" height="1" shape-rendering="crispEdges" fill="#000000ff"/><rect x="7" y="13" width="1" height="1" shape-rendering="crispEdges" fill="#142c10ff"/><rect x="8" y="13" width="1" height="1" shape-rendering="crispEdges" fill="#000000ff"/><rect x="9" y="13" width="1" height="1" shape-rendering="crispEdges" fill="#29393fff"/><rect x="10" y="13" width="1" height="1" shape-rendering="crispEdges" fill="#58686eff"/><rect x="11" y="13" width="1" height="1" shape-rendering="crispEdges" fill="#000000ff"/><rect x="12" y="13" width="2" height="1" shape-rendering="crispEdges" fill="#142c10ff"/><rect x="14" y="13" width="1" height="1" shape-rendering="crispEdges" fill="#000000ff"/><rect x="15" y="13" width="1" height="1" shape-rendering="crispEdges" fill="#757575ff"/><rect x="16" y="13" width="1" height="1" shape-rendering="crispEdges" fill="#000000ff"/><rect x="17" y="13" width="4" height="1" shape-rendering="crispEdges" fill="#423f49ff"/><rect x="2" y="14" width="4" height="1" shape-rendering="crispEdges" fill="#423f49ff"/><rect x="6" y="14" width="1" height="1" shape-rendering="crispEdges" fill="#000000ff"/><rect x="7" y="14" width="2" height="1" shape-rendering="crispEdges" fill="#142c10ff"/><rect x="9" y="14" width="2" height="1" shape-rendering="crispEdges" fill="#000000ff"/><rect x="11" y="14" width="1" height="1" shape-rendering="crispEdges" fill="#142c10ff"/><rect x="12" y="14" width="7" height="1" shape-rendering="crispEdges" fill="#000000ff"/><rect x="19" y="14" width="2" height="1" shape-rendering="crispEdges" fill="#423f49ff"/><rect x="2" y="15" width="4" height="1" shape-rendering="crispEdges" fill="#423f49ff"/><rect x="6" y="15" width="1" height="1" shape-rendering="crispEdges" fill="#000000ff"/><rect x="7" y="15" width="5" height="1" shape-rendering="crispEdges" fill="#142c10ff"/><rect x="12" y="15" width="6" height="1" shape-rendering="crispEdges" fill="#754500ff"/><rect x="18" y="15" width="1" height="1" shape-rendering="crispEdges" fill="#000000ff"/><rect x="19" y="15" width="2" height="1" shape-rendering="crispEdges" fill="#423f49ff"/><rect x="2" y="16" width="4" height="1" shape-rendering="crispEdges" fill="#423f49ff"/><rect x="6" y="16" width="1" height="1" shape-rendering="crispEdges" fill="#000000ff"/><rect x="7" y="16" width="5" height="1" shape-rendering="crispEdges" fill="#142c10ff"/><rect x="12" y="16" width="4" height="1" shape-rendering="crispEdges" fill="#754500ff"/><rect x="16" y="16" width="3" height="1" shape-rendering="crispEdges" fill="#000000ff"/><rect x="19" y="16" width="2" height="1" shape-rendering="crispEdges" fill="#423f49ff"/><rect x="2" y="17" width="4" height="1" shape-rendering="crispEdges" fill="#423f49ff"/><rect x="6" y="17" width="1" height="1" shape-rendering="crispEdges" fill="#000000ff"/><rect x="7" y="17" width="1" height="1" shape-rendering="crispEdges" fill="#716959ff"/><rect x="8" y="17" width="1" height="1" shape-rendering="crispEdges" fill="#6e654fff"/><rect x="9" y="17" width="1" height="1" shape-rendering="crispEdges" fill="#716959ff"/><rect x="10" y="17" width="6" height="1" shape-rendering="crispEdges" fill="#142c10ff"/><rect x="16" y="17" width="1" height="1" shape-rendering="crispEdges" fill="#000000ff"/><rect x="17" y="17" width="4" height="1" shape-rendering="crispEdges" fill="#423f49ff"/><rect x="2" y="18" width="4" height="1" shape-rendering="crispEdges" fill="#423f49ff"/><rect x="6" y="18" width="1" height="1" shape-rendering="crispEdges" fill="#000000ff"/><rect x="7" y="18" width="1" height="1" shape-rendering="crispEdges" fill="#6e654eff"/><rect x="8" y="18" width="1" height="1" shape-rendering="crispEdges" fill="#6e654fff"/><rect x="9" y="18" width="1" height="1" shape-rendering="crispEdges" fill="#716959ff"/><rect x="10" y="18" width="1" height="1" shape-rendering="crispEdges" fill="#6e654fff"/><rect x="11" y="18" width="1" height="1" shape-rendering="crispEdges" fill="#6e654eff"/><rect x="12" y="18" width="3" height="1" shape-rendering="crispEdges" fill="#757575ff"/><rect x="15" y="18" width="1" height="1" shape-rendering="crispEdges" fill="#6e654fff"/><rect x="16" y="18" width="1" height="1" shape-rendering="crispEdges" fill="#000000ff"/><rect x="17" y="18" width="4" height="1" shape-rendering="crispEdges" fill="#423f49ff"/><rect x="2" y="19" width="4" height="1" shape-rendering="crispEdges" fill="#423f49ff"/><rect x="6" y="19" width="1" height="1" shape-rendering="crispEdges" fill="#000000ff"/><rect x="7" y="19" width="1" height="1" shape-rendering="crispEdges" fill="#2b1600ff"/><rect x="8" y="19" width="1" height="1" shape-rendering="crispEdges" fill="#726a59ff"/><rect x="9" y="19" width="1" height="1" shape-rendering="crispEdges" fill="#6e654fff"/><rect x="10" y="19" width="1" height="1" shape-rendering="crispEdges" fill="#716958ff"/><rect x="11" y="19" width="1" height="1" shape-rendering="crispEdges" fill="#726a59ff"/><rect x="12" y="19" width="1" height="1" shape-rendering="crispEdges" fill="#6e654eff"/><rect x="13" y="19" width="1" height="1" shape-rendering="crispEdges" fill="#757575ff"/><rect x="14" y="19" width="1" height="1" shape-rendering="crispEdges" fill="#716959ff"/><rect x="15" y="19" width="1" height="1" shape-rendering="crispEdges" fill="#6e654eff"/><rect x="16" y="19" width="1" height="1" shape-rendering="crispEdges" fill="#000000ff"/><rect x="17" y="19" width="4" height="1" shape-rendering="crispEdges" fill="#423f49ff"/><rect x="2" y="20" width="4" height="1" shape-rendering="crispEdges" fill="#423f49ff"/><rect x="6" y="20" width="1" height="1" shape-rendering="crispEdges" fill="#000000ff"/><rect x="7" y="20" width="2" height="1" shape-rendering="crispEdges" fill="#2b1600ff"/><rect x="9" y="20" width="1" height="1" shape-rendering="crispEdges" fill="#6e654fff"/><rect x="10" y="20" width="1" height="1" shape-rendering="crispEdges" fill="#6b6558ff"/><rect x="11" y="20" width="1" height="1" shape-rendering="crispEdges" fill="#716959ff"/><rect x="12" y="20" width="1" height="1" shape-rendering="crispEdges" fill="#6e654eff"/><rect x="13" y="20" width="1" height="1" shape-rendering="crispEdges" fill="#271a18ff"/><rect x="14" y="20" width="1" height="1" shape-rendering="crispEdges" fill="#6e654fff"/><rect x="15" y="20" width="1" height="1" shape-rendering="crispEdges" fill="#726a59ff"/><rect x="16" y="20" width="1" height="1" shape-rendering="crispEdges" fill="#000000ff"/><rect x="17" y="20" width="4" height="1" shape-rendering="crispEdges" fill="#423f49ff"/><rect x="6" y="21" width="1" height="1" shape-rendering="crispEdges" fill="#000000ff"/><rect x="7" y="21" width="1" height="1" shape-rendering="crispEdges" fill="#5f3000ff"/><rect x="8" y="21" width="1" height="1" shape-rendering="crispEdges" fill="#5e2f00ff"/><rect x="9" y="21" width="1" height="1" shape-rendering="crispEdges" fill="#5f2f00ff"/><rect x="10" y="21" width="2" height="1" shape-rendering="crispEdges" fill="#f0dcacff"/><rect x="12" y="21" width="1" height="1" shape-rendering="crispEdges" fill="#5f3000ff"/><rect x="13" y="21" width="1" height="1" shape-rendering="crispEdges" fill="#553935ff"/><rect x="14" y="21" width="1" height="1" shape-rendering="crispEdges" fill="#5f2f00ff"/><rect x="15" y="21" width="1" height="1" shape-rendering="crispEdges" fill="#efdcacff"/><rect x="16" y="21" width="1" height="1" shape-rendering="crispEdges" fill="#000000ff"/><rect x="6" y="22" width="1" height="1" shape-rendering="crispEdges" fill="#000000ff"/><rect x="7" y="22" width="1" height="1" shape-rendering="crispEdges" fill="#5f3000ff"/><rect x="8" y="22" width="1" height="1" shape-rendering="crispEdges" fill="#5e2f00ff"/><rect x="9" y="22" width="3" height="1" shape-rendering="crispEdges" fill="#5f3000ff"/><rect x="12" y="22" width="1" height="1" shape-rendering="crispEdges" fill="#5f2f00ff"/><rect x="13" y="22" width="1" height="1" shape-rendering="crispEdges" fill="#553935ff"/><rect x="14" y="22" width="1" height="1" shape-rendering="crispEdges" fill="#5f3000ff"/><rect x="15" y="22" width="1" height="1" shape-rendering="crispEdges" fill="#5f2f00ff"/><rect x="16" y="22" width="1" height="1" shape-rendering="crispEdges" fill="#000000ff"/><rect x="6" y="23" width="1" height="1" shape-rendering="crispEdges" fill="#000000ff"/><rect x="7" y="23" width="3" height="1" shape-rendering="crispEdges" fill="#5f3000ff"/><rect x="10" y="23" width="1" height="1" shape-rendering="crispEdges" fill="#5f2f00ff"/><rect x="11" y="23" width="1" height="1" shape-rendering="crispEdges" fill="#5e2f00ff"/><rect x="12" y="23" width="1" height="1" shape-rendering="crispEdges" fill="#5f2f00ff"/><rect x="13" y="23" width="1" height="1" shape-rendering="crispEdges" fill="#553935ff"/><rect x="14" y="23" width="2" height="1" shape-rendering="crispEdges" fill="#5f3000ff"/><rect x="16" y="23" width="1" height="1" shape-rendering="crispEdges" fill="#000000ff"/></svg>