<svg xmlns="http://www.w3.org/2000/svg" version="1.1" viewBox="0 0 24 24"><rect x="0" y="0" width="24" height="24" shape-rendering="crispEdges" fill="#6d9590ff"/><rect x="8" y="2" width="1" height="1" shape-rendering="crispEdges" fill="#3be72aff"/><rect x="9" y="2" width="2" height="1" shape-rendering="crispEdges" fill="#09e768ff"/><rect x="11" y="2" width="2" height="1" shape-rendering="crispEdges" fill="#0ae8a5ff"/><rect x="13" y="2" width="2" height="1" shape-rendering="crispEdges" fill="#0be9d5ff"/><rect x="6" y="3" width="1" height="1" shape-rendering="crispEdges" fill="#81e729ff"/><rect x="7" y="3" width="2" height="1" shape-rendering="crispEdges" fill="#3be72aff"/><rect x="9" y="3" width="3" height="1" shape-rendering="crispEdges" fill="#09e768ff"/><rect x="12" y="3" width="1" height="1" shape-rendering="crispEdges" fill="#0ae8a5ff"/><rect x="13" y="3" width="2" height="1" shape-rendering="crispEdges" fill="#0be9d5ff"/><rect x="15" y="3" width="1" height="1" shape-rendering="crispEdges" fill="#17d1ecff"/><rect x="16" y="3" width="1" height="1" shape-rendering="crispEdges" fill="#239decff"/><rect x="5" y="4" width="1" height="1" shape-rendering="crispEdges" fill="#b3e829ff"/><rect x="6" y="4" width="2" height="1" shape-rendering="crispEdges" fill="#81e729ff"/><rect x="8" y="4" width="3" height="1" shape-rendering="crispEdges" fill="#3be72aff"/><rect x="11" y="4" width="1" height="1" shape-rendering="crispEdges" fill="#09e768ff"/><rect x="12" y="4" width="1" height="1" shape-rendering="crispEdges" fill="#0ae8a5ff"/><rect x="13" y="4" width="1" height="1" shape-rendering="crispEdges" fill="#0be9d5ff"/><rect x="14" y="4" width="2" height="1" shape-rendering="crispEdges" fill="#17d1ecff"/><rect x="16" y="4" width="1" height="1" shape-rendering="crispEdges" fill="#239decff"/><rect x="17" y="4" width="1" height="1" shape-rendering="crispEdges" fill="#2780ecff"/><rect x="4" y="5" width="1" height="1" shape-rendering="crispEdges" fill="#dfe829ff"/><rect x="5" y="5" width="2" height="1" shape-rendering="crispEdges" fill="#b3e829ff"/><rect x="7" y="5" width="3" height="1" shape-rendering="crispEdges" fill="#81e729ff"/><rect x="10" y="5" width="1" height="1" shape-rendering="crispEdges" fill="#3be72aff"/><rect x="11" y="5" width="1" height="1" shape-rendering="crispEdges" fill="#09e768ff"/><rect x="12" y="5" width="1" height="1" shape-rendering="crispEdges" fill="#0ae8a5ff"/><rect x="13" y="5" width="1" height="1" shape-rendering="crispEdges" fill="#0be9d5ff"/><rect x="14" y="5" width="1" height="1" shape-rendering="crispEdges" fill="#17d1ecff"/><rect x="15" y="5" width="1" height="1" shape-rendering="crispEdges" fill="#239decff"/><rect x="16" y="5" width="2" height="1" shape-rendering="crispEdges" fill="#2780ecff"/><rect x="3" y="6" width="4" height="1" shape-rendering="crispEdges" fill="#dfe829ff"/><rect x="7" y="6" width="2" height="1" shape-rendering="crispEdges" fill="#b3e829ff"/><rect x="9" y="6" width="1" height="1" shape-rendering="crispEdges" fill="#81e729ff"/><rect x="10" y="6" width="1" height="1" shape-rendering="crispEdges" fill="#3be72aff"/><rect x="11" y="6" width="1" height="1" shape-rendering="crispEdges" fill="#09e768ff"/><rect x="12" y="6" width="1" height="1" shape-rendering="crispEdges" fill="#0ae8a5ff"/><rect x="13" y="6" width="1" height="1" shape-rendering="crispEdges" fill="#0be9d5ff"/><rect x="14" y="6" width="1" height="1" shape-rendering="crispEdges" fill="#17d1ecff"/><rect x="15" y="6" width="1" height="1" shape-rendering="crispEdges" fill="#239decff"/><rect x="16" y="6" width="1" height="1" shape-rendering="crispEdges" fill="#2780ecff"/><rect x="17" y="6" width="2" height="1" shape-rendering="crispEdges" fill="#2a61ecff"/><rect x="3" y="7" width="1" height="1" shape-rendering="crispEdges" fill="#ecdc28ff"/><rect x="4" y="7" width="4" height="1" shape-rendering="crispEdges" fill="#dfe829ff"/><rect x="8" y="7" width="1" height="1" shape-rendering="crispEdges" fill="#b3e829ff"/><rect x="9" y="7" width="1" height="1" shape-rendering="crispEdges" fill="#81e729ff"/><rect x="10" y="7" width="1" height="1" shape-rendering="crispEdges" fill="#3be72aff"/><rect x="11" y="7" width="1" height="1" shape-rendering="crispEdges" fill="#09e768ff"/><rect x="12" y="7" width="1" height="1" shape-rendering="crispEdges" fill="#0ae8a5ff"/><rect x="13" y="7" width="1" height="1" shape-rendering="crispEdges" fill="#0be9d5ff"/><rect x="14" y="7" width="1" height="1" shape-rendering="crispEdges" fill="#17d1ecff"/><rect x="15" y="7" width="1" height="1" shape-rendering="crispEdges" fill="#239decff"/><rect x="16" y="7" width="1" height="1" shape-rendering="crispEdges" fill="#2780ecff"/><rect x="17" y="7" width="1" height="1" shape-rendering="crispEdges" fill="#2a61ecff"/><rect x="18" y="7" width="1" height="1" shape-rendering="crispEdges" fill="#2c45ecff"/><rect x="3" y="8" width="4" height="1" shape-rendering="crispEdges" fill="#ecdc28ff"/><rect x="7" y="8" width="2" height="1" shape-rendering="crispEdges" fill="#dfe829ff"/><rect x="9" y="8" width="6" height="1" shape-rendering="crispEdges" fill="#7c5fb3ff"/><rect x="15" y="8" width="1" height="1" shape-rendering="crispEdges" fill="#239decff"/><rect x="16" y="8" width="1" height="1" shape-rendering="crispEdges" fill="#2a61ecff"/><rect x="17" y="8" width="2" height="1" shape-rendering="crispEdges" fill="#2c45ecff"/><rect x="3" y="9" width="5" height="1" shape-rendering="crispEdges" fill="#edc629ff"/><rect x="8" y="9" width="8" height="1" shape-rendering="crispEdges" fill="#7c5fb3ff"/><rect x="16" y="9" width="2" height="1" shape-rendering="crispEdges" fill="#2c45ecff"/><rect x="18" y="9" width="1" height="1" shape-rendering="crispEdges" fill="#4540ecff"/><rect x="3" y="10" width="1" height="1" shape-rendering="crispEdges" fill="#edc629ff"/><rect x="4" y="10" width="3" height="1" shape-rendering="crispEdges" fill="#eda529ff"/><rect x="7" y="10" width="9" height="1" shape-rendering="crispEdges" fill="#7c5fb3ff"/><rect x="16" y="10" width="2" height="1" shape-rendering="crispEdges" fill="#4540ecff"/><rect x="4" y="11" width="1" height="1" shape-rendering="crispEdges" fill="#ee7729ff"/><rect x="5" y="11" width="2" height="1" shape-rendering="crispEdges" fill="#ee6029ff"/><rect x="7" y="11" width="2" height="1" shape-rendering="crispEdges" fill="#7c5fb3ff"/><rect x="9" y="11" width="4" height="1" shape-rendering="crispEdges" fill="#000000ff"/><rect x="13" y="11" width="1" height="1" shape-rendering="crispEdges" fill="#7c5fb3ff"/><rect x="14" y="11" width="4" height="1" shape-rendering="crispEdges" fill="#000000ff"/><rect x="5" y="12" width="1" height="1" shape-rendering="crispEdges" fill="#ee6029ff"/><rect x="6" y="12" width="1" height="1" shape-rendering="crispEdges" fill="#ef382aff"/><rect x="7" y="12" width="2" height="1" shape-rendering="crispEdges" fill="#7c5fb3ff"/><rect x="9" y="12" width="1" height="1" shape-rendering="crispEdges" fill="#000000ff"/><rect x="10" y="12" width="2" height="1" shape-rendering="crispEdges" fill="#ea5810ff"/><rect x="12" y="12" width="1" height="1" shape-rendering="crispEdges" fill="#000000ff"/><rect x="13" y="12" width="1" height="1" shape-rendering="crispEdges" fill="#7c5fb3ff"/><rect x="14" y="12" width="1" height="1" shape-rendering="crispEdges" fill="#000000ff"/><rect x="15" y="12" width="2" height="1" shape-rendering="crispEdges" fill="#ea5810ff"/><rect x="17" y="12" width="1" height="1" shape-rendering="crispEdges" fill="#000000ff"/><rect x="6" y="13" width="1" height="1" shape-rendering="crispEdges" fill="#000000ff"/><rect x="7" y="13" width="2" height="1" shape-rendering="crispEdges" fill="#7c5fb3ff"/><rect x="9" y="13" width="1" height="1" shape-rendering="crispEdges" fill="#000000ff"/><rect x="10" y="13" width="2" height="1" shape-rendering="crispEdges" fill="#ea7037ff"/><rect x="12" y="13" width="3" height="1" shape-rendering="crispEdges" fill="#000000ff"/><rect x="15" y="13" width="2" height="1" shape-rendering="crispEdges" fill="#ea7037ff"/><rect x="17" y="13" width="1" height="1" shape-rendering="crispEdges" fill="#000000ff"/><rect x="6" y="14" width="1" height="1" shape-rendering="crispEdges" fill="#000000ff"/><rect x="7" y="14" width="2" height="1" shape-rendering="crispEdges" fill="#7c5fb3ff"/><rect x="9" y="14" width="10" height="1" shape-rendering="crispEdges" fill="#000000ff"/><rect x="6" y="15" width="1" height="1" shape-rendering="crispEdges" fill="#000000ff"/><rect x="7" y="15" width="5" height="1" shape-rendering="crispEdges" fill="#7c5fb3ff"/><rect x="12" y="15" width="6" height="1" shape-rendering="crispEdges" fill="#ff9600ff"/><rect x="18" y="15" width="1" height="1" shape-rendering="crispEdges" fill="#000000ff"/><rect x="6" y="16" width="1" height="1" shape-rendering="crispEdges" fill="#000000ff"/><rect x="7" y="16" width="5" height="1" shape-rendering="crispEdges" fill="#7c5fb3ff"/><rect x="12" y="16" width="4" height="1" shape-rendering="crispEdges" fill="#ff9600ff"/><rect x="16" y="16" width="3" height="1" shape-rendering="crispEdges" fill="#000000ff"/><rect x="6" y="17" width="1" height="1" shape-rendering="crispEdges" fill="#000000ff"/><rect x="7" y="17" width="9" height="1" shape-rendering="crispEdges" fill="#7c5fb3ff"/><rect x="16" y="17" width="1" height="1" shape-rendering="crispEdges" fill="#000000ff"/><rect x="6" y="18" width="1" height="1" shape-rendering="crispEdges" fill="#000000ff"/><rect x="7" y="18" width="9" height="1" shape-rendering="crispEdges" fill="#7c5fb3ff"/><rect x="16" y="18" width="1" height="1" shape-rendering="crispEdges" fill="#000000ff"/><rect x="6" y="19" width="1" height="1" shape-rendering="crispEdges" fill="#000000ff"/><rect x="7" y="19" width="9" height="1" shape-rendering="crispEdges" fill="#7c5fb3ff"/><rect x="16" y="19" width="1" height="1" shape-rendering="crispEdges" fill="#000000ff"/><rect x="6" y="20" width="1" height="1" shape-rendering="crispEdges" fill="#000000ff"/><rect x="7" y="20" width="9" height="1" shape-rendering="crispEdges" fill="#7c5fb3ff"/><rect x="16" y="20" width="1" height="1" shape-rendering="crispEdges" fill="#000000ff"/><rect x="6" y="21" width="1" height="1" shape-rendering="crispEdges" fill="#000000ff"/><rect x="7" y="21" width="9" height="1" shape-rendering="crispEdges" fill="#7c5fb3ff"/><rect x="16" y="21" width="1" height="1" shape-rendering="crispEdges" fill="#000000ff"/><rect x="6" y="22" width="1" height="1" shape-rendering="crispEdges" fill="#000000ff"/><rect x="7" y="22" width="9" height="1" shape-rendering="crispEdges" fill="#7c5fb3ff"/><rect x="16" y="22" width="1" height="1" shape-rendering="crispEdges" fill="#000000ff"/><rect x="6" y="23" width="1" height="1" shape-rendering="crispEdges" fill="#000000ff"/><rect x="7" y="23" width="9" height="1" shape-rendering="crispEdges" fill="#7c5fb3ff"/><rect x="16" y="23" width="1" height="1" shape-rendering="crispEdges" fill="#000000ff"/></svg>