<svg xmlns="http://www.w3.org/2000/svg" version="1.1" viewBox="0 0 24 24"><rect x="0" y="0" width="24" height="24" shape-rendering="crispEdges" fill="#dd949cff"/><rect x="8" y="2" width="7" height="1" shape-rendering="crispEdges" fill="#000000ff"/><rect x="7" y="3" width="9" height="1" shape-rendering="crispEdges" fill="#000000ff"/><rect x="7" y="4" width="9" height="1" shape-rendering="crispEdges" fill="#000000ff"/><rect x="7" y="5" width="9" height="1" shape-rendering="crispEdges" fill="#000000ff"/><rect x="7" y="6" width="9" height="1" shape-rendering="crispEdges" fill="#ffffffff"/><rect x="4" y="7" width="15" height="1" shape-rendering="crispEdges" fill="#000000ff"/><rect x="5" y="8" width="13" height="1" shape-rendering="crispEdges" fill="#000000ff"/><rect x="6" y="9" width="1" height="1" shape-rendering="crispEdges" fill="#000000ff"/><rect x="7" y="9" width="9" height="1" shape-rendering="crispEdges" fill="#72a462ff"/><rect x="16" y="9" width="1" height="1" shape-rendering="crispEdges" fill="#000000ff"/><rect x="6" y="10" width="1" height="1" shape-rendering="crispEdges" fill="#000000ff"/><rect x="7" y="10" width="9" height="1" shape-rendering="crispEdges" fill="#72a462ff"/><rect x="16" y="10" width="1" height="1" shape-rendering="crispEdges" fill="#000000ff"/><rect x="6" y="11" width="1" height="1" shape-rendering="crispEdges" fill="#000000ff"/><rect x="7" y="11" width="9" height="1" shape-rendering="crispEdges" fill="#72a462ff"/><rect x="16" y="11" width="1" height="1" shape-rendering="crispEdges" fill="#000000ff"/><rect x="6" y="12" width="1" height="1" shape-rendering="crispEdges" fill="#000000ff"/><rect x="7" y="12" width="1" height="1" shape-rendering="crispEdges" fill="#0a0f09ff"/><rect x="8" y="12" width="1" height="1" shape-rendering="crispEdges" fill="#5b4609ff"/><rect x="9" y="12" width="2" height="1" shape-rendering="crispEdges" fill="#5a4207ff"/><rect x="11" y="12" width="1" height="1" shape-rendering="crispEdges" fill="#5c4709ff"/><rect x="12" y="12" width="1" height="1" shape-rendering="crispEdges" fill="#0a0f09ff"/><rect x="13" y="12" width="1" height="1" shape-rendering="crispEdges" fill="#5b4609ff"/><rect x="14" y="12" width="1" height="1" shape-rendering="crispEdges" fill="#5a4207ff"/><rect x="15" y="12" width="1" height="1" shape-rendering="crispEdges" fill="#594107ff"/><rect x="16" y="12" width="1" height="1" shape-rendering="crispEdges" fill="#000000ff"/><rect x="6" y="13" width="1" height="1" shape-rendering="crispEdges" fill="#000000ff"/><rect x="7" y="13" width="1" height="1" shape-rendering="crispEdges" fill="#72a462ff"/><rect x="8" y="13" width="1" height="1" shape-rendering="crispEdges" fill="#635423ff"/><rect x="9" y="13" width="1" height="1" shape-rendering="crispEdges" fill="#71491bff"/><rect x="10" y="13" width="1" height="1" shape-rendering="crispEdges" fill="#59451aff"/><rect x="11" y="13" width="1" height="1" shape-rendering="crispEdges" fill="#635423ff"/><rect x="12" y="13" width="1" height="1" shape-rendering="crispEdges" fill="#72a462ff"/><rect x="13" y="13" width="1" height="1" shape-rendering="crispEdges" fill="#635423ff"/><rect x="14" y="13" width="1" height="1" shape-rendering="crispEdges" fill="#71491bff"/><rect x="15" y="13" width="1" height="1" shape-rendering="crispEdges" fill="#59451bff"/><rect x="16" y="13" width="1" height="1" shape-rendering="crispEdges" fill="#000000ff"/><rect x="6" y="14" width="1" height="1" shape-rendering="crispEdges" fill="#000000ff"/><rect x="7" y="14" width="1" height="1" shape-rendering="crispEdges" fill="#72a462ff"/><rect x="8" y="14" width="1" height="1" shape-rendering="crispEdges" fill="#8e7c44ff"/><rect x="9" y="14" width="1" height="1" shape-rendering="crispEdges" fill="#8c7742ff"/><rect x="10" y="14" width="1" height="1" shape-rendering="crispEdges" fill="#8e7c44ff"/><rect x="11" y="14" width="1" height="1" shape-rendering="crispEdges" fill="#72a462ff"/><rect x="12" y="14" width="7" height="1" shape-rendering="crispEdges" fill="#000000ff"/><rect x="6" y="15" width="1" height="1" shape-rendering="crispEdges" fill="#000000ff"/><rect x="7" y="15" width="5" height="1" shape-rendering="crispEdges" fill="#72a462ff"/><rect x="12" y="15" width="6" height="1" shape-rendering="crispEdges" fill="#a68f65ff"/><rect x="18" y="15" width="1" height="1" shape-rendering="crispEdges" fill="#000000ff"/><rect x="6" y="16" width="1" height="1" shape-rendering="crispEdges" fill="#000000ff"/><rect x="7" y="16" width="5" height="1" shape-rendering="crispEdges" fill="#72a462ff"/><rect x="12" y="16" width="4" height="1" shape-rendering="crispEdges" fill="#a68f65ff"/><rect x="16" y="16" width="3" height="1" shape-rendering="crispEdges" fill="#000000ff"/><rect x="6" y="17" width="1" height="1" shape-rendering="crispEdges" fill="#000000ff"/><rect x="7" y="17" width="5" height="1" shape-rendering="crispEdges" fill="#72a462ff"/><rect x="12" y="17" width="1" height="1" shape-rendering="crispEdges" fill="#597450ff"/><rect x="13" y="17" width="3" height="1" shape-rendering="crispEdges" fill="#72a462ff"/><rect x="16" y="17" width="1" height="1" shape-rendering="crispEdges" fill="#000000ff"/><rect x="6" y="18" width="1" height="1" shape-rendering="crispEdges" fill="#000000ff"/><rect x="7" y="18" width="9" height="1" shape-rendering="crispEdges" fill="#72a462ff"/><rect x="16" y="18" width="1" height="1" shape-rendering="crispEdges" fill="#000000ff"/><rect x="3" y="19" width="1" height="1" shape-rendering="crispEdges" fill="#dc939bff"/><rect x="4" y="19" width="1" height="1" shape-rendering="crispEdges" fill="#dc9199ff"/><rect x="5" y="19" width="1" height="1" shape-rendering="crispEdges" fill="#d11d21ff"/><rect x="6" y="19" width="3" height="1" shape-rendering="crispEdges" fill="#dfdfdfff"/><rect x="9" y="19" width="4" height="1" shape-rendering="crispEdges" fill="#d11d21ff"/><rect x="13" y="19" width="3" height="1" shape-rendering="crispEdges" fill="#dfdfdfff"/><rect x="16" y="19" width="2" height="1" shape-rendering="crispEdges" fill="#d11d21ff"/><rect x="1" y="20" width="1" height="1" shape-rendering="crispEdges" fill="#dc929aff"/><rect x="3" y="20" width="1" height="1" shape-rendering="crispEdges" fill="#dd929aff"/><rect x="4" y="20" width="1" height="1" shape-rendering="crispEdges" fill="#d11d21ff"/><rect x="5" y="20" width="1" height="1" shape-rendering="crispEdges" fill="#ff2728ff"/><rect x="6" y="20" width="3" height="1" shape-rendering="crispEdges" fill="#ffffffff"/><rect x="9" y="20" width="4" height="1" shape-rendering="crispEdges" fill="#ff2728ff"/><rect x="13" y="20" width="3" height="1" shape-rendering="crispEdges" fill="#ffffffff"/><rect x="16" y="20" width="2" height="1" shape-rendering="crispEdges" fill="#ff2728ff"/><rect x="18" y="20" width="1" height="1" shape-rendering="crispEdges" fill="#d11d21ff"/><rect x="22" y="20" width="1" height="1" shape-rendering="crispEdges" fill="#dc929aff"/><rect x="1" y="21" width="1" height="1" shape-rendering="crispEdges" fill="#dc9198ff"/><rect x="3" y="21" width="1" height="1" shape-rendering="crispEdges" fill="#dd929aff"/><rect x="4" y="21" width="1" height="1" shape-rendering="crispEdges" fill="#d11d21ff"/><rect x="5" y="21" width="1" height="1" shape-rendering="crispEdges" fill="#ff2728ff"/><rect x="6" y="21" width="3" height="1" shape-rendering="crispEdges" fill="#ffffffff"/><rect x="9" y="21" width="4" height="1" shape-rendering="crispEdges" fill="#ff2728ff"/><rect x="13" y="21" width="3" height="1" shape-rendering="crispEdges" fill="#ffffffff"/><rect x="16" y="21" width="2" height="1" shape-rendering="crispEdges" fill="#ff2728ff"/><rect x="18" y="21" width="1" height="1" shape-rendering="crispEdges" fill="#d11d21ff"/><rect x="22" y="21" width="1" height="1" shape-rendering="crispEdges" fill="#dc929aff"/><rect x="1" y="22" width="1" height="1" shape-rendering="crispEdges" fill="#db9098ff"/><rect x="5" y="22" width="1" height="1" shape-rendering="crispEdges" fill="#d11d21ff"/><rect x="6" y="22" width="3" height="1" shape-rendering="crispEdges" fill="#dfdfdfff"/><rect x="9" y="22" width="4" height="1" shape-rendering="crispEdges" fill="#d11d21ff"/><rect x="13" y="22" width="3" height="1" shape-rendering="crispEdges" fill="#dfdfdfff"/><rect x="16" y="22" width="2" height="1" shape-rendering="crispEdges" fill="#d11d21ff"/><rect x="22" y="22" width="1" height="1" shape-rendering="crispEdges" fill="#dc929aff"/><rect x="6" y="23" width="1" height="1" shape-rendering="crispEdges" fill="#000000ff"/><rect x="7" y="23" width="9" height="1" shape-rendering="crispEdges" fill="#72a462ff"/><rect x="16" y="23" width="1" height="1" shape-rendering="crispEdges" fill="#000000ff"/><rect x="21" y="23" width="1" height="1" shape-rendering="crispEdges" fill="#dc939bff"/></svg>