<svg xmlns="http://www.w3.org/2000/svg" version="1.1" viewBox="0 0 24 24"><rect x="0" y="0" width="24" height="24" shape-rendering="crispEdges" fill="#dd949cff"/><rect x="6" y="2" width="10" height="1" shape-rendering="crispEdges" fill="#1e1e1eff"/><rect x="5" y="3" width="12" height="1" shape-rendering="crispEdges" fill="#1e1e1eff"/><rect x="4" y="4" width="14" height="1" shape-rendering="crispEdges" fill="#1e1e1eff"/><rect x="4" y="5" width="14" height="1" shape-rendering="crispEdges" fill="#1e1e1eff"/><rect x="3" y="6" width="16" height="1" shape-rendering="crispEdges" fill="#1e1e1eff"/><rect x="3" y="7" width="16" height="1" shape-rendering="crispEdges" fill="#1e1e1eff"/><rect x="3" y="8" width="6" height="1" shape-rendering="crispEdges" fill="#1e1e1eff"/><rect x="9" y="8" width="6" height="1" shape-rendering="crispEdges" fill="#97682fff"/><rect x="15" y="8" width="4" height="1" shape-rendering="crispEdges" fill="#1e1e1eff"/><rect x="3" y="9" width="5" height="1" shape-rendering="crispEdges" fill="#1e1e1eff"/><rect x="8" y="9" width="8" height="1" shape-rendering="crispEdges" fill="#97682fff"/><rect x="16" y="9" width="3" height="1" shape-rendering="crispEdges" fill="#1e1e1eff"/><rect x="3" y="10" width="5" height="1" shape-rendering="crispEdges" fill="#1e1e1eff"/><rect x="8" y="10" width="2" height="1" shape-rendering="crispEdges" fill="#000000ff"/><rect x="10" y="10" width="6" height="1" shape-rendering="crispEdges" fill="#97682fff"/><rect x="16" y="10" width="1" height="1" shape-rendering="crispEdges" fill="#000000ff"/><rect x="17" y="10" width="1" height="1" shape-rendering="crispEdges" fill="#1e1e1eff"/><rect x="4" y="11" width="2" height="1" shape-rendering="crispEdges" fill="#1e1e1eff"/><rect x="6" y="11" width="4" height="1" shape-rendering="crispEdges" fill="#fffefdff"/><rect x="10" y="11" width="1" height="1" shape-rendering="crispEdges" fill="#000000ff"/><rect x="11" y="11" width="5" height="1" shape-rendering="crispEdges" fill="#97682fff"/><rect x="16" y="11" width="1" height="1" shape-rendering="crispEdges" fill="#000000ff"/><rect x="5" y="12" width="1" height="1" shape-rendering="crispEdges" fill="#1e1e1eff"/><rect x="6" y="12" width="1" height="1" shape-rendering="crispEdges" fill="#00f8eaff"/><rect x="7" y="12" width="1" height="1" shape-rendering="crispEdges" fill="#fffefdff"/><rect x="8" y="12" width="1" height="1" shape-rendering="crispEdges" fill="#b4542cff"/><rect x="9" y="12" width="2" height="1" shape-rendering="crispEdges" fill="#974123ff"/><rect x="11" y="12" width="1" height="1" shape-rendering="crispEdges" fill="#b4542cff"/><rect x="12" y="12" width="2" height="1" shape-rendering="crispEdges" fill="#97682fff"/><rect x="14" y="12" width="2" height="1" shape-rendering="crispEdges" fill="#6e4c23ff"/><rect x="16" y="12" width="1" height="1" shape-rendering="crispEdges" fill="#000000ff"/><rect x="5" y="13" width="1" height="1" shape-rendering="crispEdges" fill="#000000ff"/><rect x="6" y="13" width="1" height="1" shape-rendering="crispEdges" fill="#00f8eaff"/><rect x="7" y="13" width="1" height="1" shape-rendering="crispEdges" fill="#fffefdff"/><rect x="8" y="13" width="1" height="1" shape-rendering="crispEdges" fill="#b4542cff"/><rect x="9" y="13" width="1" height="1" shape-rendering="crispEdges" fill="#490b0bff"/><rect x="10" y="13" width="1" height="1" shape-rendering="crispEdges" fill="#fec0c0ff"/><rect x="11" y="13" width="1" height="1" shape-rendering="crispEdges" fill="#b4542cff"/><rect x="12" y="13" width="2" height="1" shape-rendering="crispEdges" fill="#97682fff"/><rect x="14" y="13" width="1" height="1" shape-rendering="crispEdges" fill="#000000ff"/><rect x="15" y="13" width="1" height="1" shape-rendering="crispEdges" fill="#ffffffff"/><rect x="16" y="13" width="1" height="1" shape-rendering="crispEdges" fill="#000000ff"/><rect x="5" y="14" width="1" height="1" shape-rendering="crispEdges" fill="#000000ff"/><rect x="6" y="14" width="1" height="1" shape-rendering="crispEdges" fill="#fdffffff"/><rect x="7" y="14" width="1" height="1" shape-rendering="crispEdges" fill="#fffefdff"/><rect x="8" y="14" width="4" height="1" shape-rendering="crispEdges" fill="#b4542cff"/><rect x="12" y="14" width="7" height="1" shape-rendering="crispEdges" fill="#000000ff"/><rect x="6" y="15" width="2" height="1" shape-rendering="crispEdges" fill="#000000ff"/><rect x="8" y="15" width="4" height="1" shape-rendering="crispEdges" fill="#97682fff"/><rect x="12" y="15" width="6" height="1" shape-rendering="crispEdges" fill="#ff9600ff"/><rect x="18" y="15" width="1" height="1" shape-rendering="crispEdges" fill="#000000ff"/><rect x="6" y="16" width="1" height="1" shape-rendering="crispEdges" fill="#000000ff"/><rect x="7" y="16" width="5" height="1" shape-rendering="crispEdges" fill="#97682fff"/><rect x="12" y="16" width="4" height="1" shape-rendering="crispEdges" fill="#ff9600ff"/><rect x="16" y="16" width="3" height="1" shape-rendering="crispEdges" fill="#000000ff"/><rect x="6" y="17" width="1" height="1" shape-rendering="crispEdges" fill="#000000ff"/><rect x="7" y="17" width="9" height="1" shape-rendering="crispEdges" fill="#97682fff"/><rect x="16" y="17" width="1" height="1" shape-rendering="crispEdges" fill="#000000ff"/><rect x="6" y="18" width="6" height="1" shape-rendering="crispEdges" fill="#000000ff"/><rect x="12" y="18" width="1" height="1" shape-rendering="crispEdges" fill="#97682fff"/><rect x="13" y="18" width="4" height="1" shape-rendering="crispEdges" fill="#000000ff"/><rect x="6" y="19" width="1" height="1" shape-rendering="crispEdges" fill="#000000ff"/><rect x="7" y="19" width="4" height="1" shape-rendering="crispEdges" fill="#ffa800ff"/><rect x="11" y="19" width="1" height="1" shape-rendering="crispEdges" fill="#000000ff"/><rect x="12" y="19" width="1" height="1" shape-rendering="crispEdges" fill="#97682fff"/><rect x="13" y="19" width="1" height="1" shape-rendering="crispEdges" fill="#000000ff"/><rect x="14" y="19" width="2" height="1" shape-rendering="crispEdges" fill="#ffa800ff"/><rect x="16" y="19" width="1" height="1" shape-rendering="crispEdges" fill="#000000ff"/><rect x="6" y="20" width="1" height="1" shape-rendering="crispEdges" fill="#000000ff"/><rect x="7" y="20" width="4" height="1" shape-rendering="crispEdges" fill="#ffa800ff"/><rect x="11" y="20" width="1" height="1" shape-rendering="crispEdges" fill="#000000ff"/><rect x="12" y="20" width="1" height="1" shape-rendering="crispEdges" fill="#97682fff"/><rect x="13" y="20" width="1" height="1" shape-rendering="crispEdges" fill="#000000ff"/><rect x="14" y="20" width="2" height="1" shape-rendering="crispEdges" fill="#ffa800ff"/><rect x="16" y="20" width="1" height="1" shape-rendering="crispEdges" fill="#000000ff"/><rect x="6" y="21" width="1" height="1" shape-rendering="crispEdges" fill="#000000ff"/><rect x="7" y="21" width="5" height="1" shape-rendering="crispEdges" fill="#ffa800ff"/><rect x="12" y="21" width="1" height="1" shape-rendering="crispEdges" fill="#000000ff"/><rect x="13" y="21" width="3" height="1" shape-rendering="crispEdges" fill="#ffa800ff"/><rect x="16" y="21" width="1" height="1" shape-rendering="crispEdges" fill="#000000ff"/><rect x="6" y="22" width="1" height="1" shape-rendering="crispEdges" fill="#000000ff"/><rect x="7" y="22" width="9" height="1" shape-rendering="crispEdges" fill="#a7a7a7ff"/><rect x="16" y="22" width="1" height="1" shape-rendering="crispEdges" fill="#000000ff"/><rect x="6" y="23" width="1" height="1" shape-rendering="crispEdges" fill="#000000ff"/><rect x="7" y="23" width="9" height="1" shape-rendering="crispEdges" fill="#ffa800ff"/><rect x="16" y="23" width="1" height="1" shape-rendering="crispEdges" fill="#000000ff"/></svg>