<svg xmlns="http://www.w3.org/2000/svg" version="1.1" viewBox="0 0 24 24"><rect x="0" y="0" width="24" height="24" shape-rendering="crispEdges" fill="#ca7d4eff"/><rect x="8" y="0" width="1" height="1" shape-rendering="crispEdges" fill="#ffd700ff"/><rect x="10" y="0" width="1" height="1" shape-rendering="crispEdges" fill="#ffd700ff"/><rect x="8" y="1" width="2" height="1" shape-rendering="crispEdges" fill="#ffd700ff"/><rect x="11" y="1" width="1" height="1" shape-rendering="crispEdges" fill="#ffd700ff"/><rect x="7" y="2" width="1" height="1" shape-rendering="crispEdges" fill="#ffd700ff"/><rect x="9" y="2" width="5" height="1" shape-rendering="crispEdges" fill="#ffd700ff"/><rect x="4" y="3" width="1" height="1" shape-rendering="crispEdges" fill="#ffd700ff"/><rect x="7" y="3" width="1" height="1" shape-rendering="crispEdges" fill="#ffd700ff"/><rect x="10" y="3" width="1" height="1" shape-rendering="crispEdges" fill="#ffd700ff"/><rect x="11" y="3" width="2" height="1" shape-rendering="crispEdges" fill="#ff9f00ff"/><rect x="13" y="3" width="2" height="1" shape-rendering="crispEdges" fill="#ffd700ff"/><rect x="6" y="4" width="1" height="1" shape-rendering="crispEdges" fill="#ffd700ff"/><rect x="8" y="4" width="4" height="1" shape-rendering="crispEdges" fill="#ffd700ff"/><rect x="12" y="4" width="2" height="1" shape-rendering="crispEdges" fill="#ff9f00ff"/><rect x="14" y="4" width="2" height="1" shape-rendering="crispEdges" fill="#ffd700ff"/><rect x="4" y="5" width="1" height="1" shape-rendering="crispEdges" fill="#ffd700ff"/><rect x="6" y="5" width="1" height="1" shape-rendering="crispEdges" fill="#ffd700ff"/><rect x="7" y="5" width="1" height="1" shape-rendering="crispEdges" fill="#ff9f00ff"/><rect x="8" y="5" width="1" height="1" shape-rendering="crispEdges" fill="#ffd700ff"/><rect x="9" y="5" width="5" height="1" shape-rendering="crispEdges" fill="#ff9f00ff"/><rect x="14" y="5" width="2" height="1" shape-rendering="crispEdges" fill="#ffd700ff"/><rect x="5" y="6" width="2" height="1" shape-rendering="crispEdges" fill="#ffd700ff"/><rect x="7" y="6" width="1" height="1" shape-rendering="crispEdges" fill="#ff9f00ff"/><rect x="8" y="6" width="2" height="1" shape-rendering="crispEdges" fill="#ffd700ff"/><rect x="10" y="6" width="5" height="1" shape-rendering="crispEdges" fill="#ff9f00ff"/><rect x="15" y="6" width="2" height="1" shape-rendering="crispEdges" fill="#ffd700ff"/><rect x="5" y="7" width="1" height="1" shape-rendering="crispEdges" fill="#ffd700ff"/><rect x="6" y="7" width="10" height="1" shape-rendering="crispEdges" fill="#ff9f00ff"/><rect x="16" y="7" width="1" height="1" shape-rendering="crispEdges" fill="#ffd700ff"/><rect x="5" y="8" width="2" height="1" shape-rendering="crispEdges" fill="#ffd700ff"/><rect x="7" y="8" width="4" height="1" shape-rendering="crispEdges" fill="#ff9f00ff"/><rect x="11" y="8" width="5" height="1" shape-rendering="crispEdges" fill="#97682fff"/><rect x="16" y="8" width="1" height="1" shape-rendering="crispEdges" fill="#000000ff"/><rect x="6" y="9" width="1" height="1" shape-rendering="crispEdges" fill="#ffd700ff"/><rect x="7" y="9" width="1" height="1" shape-rendering="crispEdges" fill="#ff9f00ff"/><rect x="8" y="9" width="8" height="1" shape-rendering="crispEdges" fill="#97682fff"/><rect x="16" y="9" width="1" height="1" shape-rendering="crispEdges" fill="#000000ff"/><rect x="6" y="10" width="1" height="1" shape-rendering="crispEdges" fill="#000000ff"/><rect x="7" y="10" width="9" height="1" shape-rendering="crispEdges" fill="#97682fff"/><rect x="16" y="10" width="1" height="1" shape-rendering="crispEdges" fill="#000000ff"/><rect x="6" y="11" width="1" height="1" shape-rendering="crispEdges" fill="#000000ff"/><rect x="7" y="11" width="9" height="1" shape-rendering="crispEdges" fill="#97682fff"/><rect x="16" y="11" width="1" height="1" shape-rendering="crispEdges" fill="#000000ff"/><rect x="22" y="11" width="1" height="1" shape-rendering="crispEdges" fill="#ba927aff"/><rect x="6" y="12" width="1" height="1" shape-rendering="crispEdges" fill="#000000ff"/><rect x="7" y="12" width="1" height="1" shape-rendering="crispEdges" fill="#0e0904ff"/><rect x="8" y="12" width="1" height="1" shape-rendering="crispEdges" fill="#5f4004ff"/><rect x="9" y="12" width="2" height="1" shape-rendering="crispEdges" fill="#5c3f03ff"/><rect x="11" y="12" width="1" height="1" shape-rendering="crispEdges" fill="#604104ff"/><rect x="12" y="12" width="1" height="1" shape-rendering="crispEdges" fill="#0e0904ff"/><rect x="13" y="12" width="1" height="1" shape-rendering="crispEdges" fill="#5f4004ff"/><rect x="14" y="12" width="1" height="1" shape-rendering="crispEdges" fill="#5c3f03ff"/><rect x="15" y="12" width="1" height="1" shape-rendering="crispEdges" fill="#5b3e03ff"/><rect x="16" y="12" width="1" height="1" shape-rendering="crispEdges" fill="#000000ff"/><rect x="6" y="13" width="1" height="1" shape-rendering="crispEdges" fill="#000000ff"/><rect x="7" y="13" width="1" height="1" shape-rendering="crispEdges" fill="#97682fff"/><rect x="8" y="13" width="1" height="1" shape-rendering="crispEdges" fill="#674e1eff"/><rect x="9" y="13" width="1" height="1" shape-rendering="crispEdges" fill="#5a461bff"/><rect x="10" y="13" width="1" height="1" shape-rendering="crispEdges" fill="#705c31ff"/><rect x="11" y="13" width="1" height="1" shape-rendering="crispEdges" fill="#674e1eff"/><rect x="12" y="13" width="1" height="1" shape-rendering="crispEdges" fill="#97682fff"/><rect x="13" y="13" width="1" height="1" shape-rendering="crispEdges" fill="#674e1eff"/><rect x="14" y="13" width="1" height="1" shape-rendering="crispEdges" fill="#5a461bff"/><rect x="15" y="13" width="1" height="1" shape-rendering="crispEdges" fill="#705c32ff"/><rect x="16" y="13" width="1" height="1" shape-rendering="crispEdges" fill="#000000ff"/><rect x="22" y="13" width="1" height="1" shape-rendering="crispEdges" fill="#b89581ff"/><rect x="6" y="14" width="1" height="1" shape-rendering="crispEdges" fill="#000000ff"/><rect x="7" y="14" width="1" height="1" shape-rendering="crispEdges" fill="#97682fff"/><rect x="8" y="14" width="3" height="1" shape-rendering="crispEdges" fill="#92763fff"/><rect x="11" y="14" width="1" height="1" shape-rendering="crispEdges" fill="#97682fff"/><rect x="12" y="14" width="7" height="1" shape-rendering="crispEdges" fill="#000000ff"/><rect x="23" y="14" width="1" height="1" shape-rendering="crispEdges" fill="#b49b8cff"/><rect x="6" y="15" width="1" height="1" shape-rendering="crispEdges" fill="#000000ff"/><rect x="7" y="15" width="5" height="1" shape-rendering="crispEdges" fill="#97682fff"/><rect x="12" y="15" width="6" height="1" shape-rendering="crispEdges" fill="#ff9600ff"/><rect x="18" y="15" width="1" height="1" shape-rendering="crispEdges" fill="#000000ff"/><rect x="22" y="15" width="1" height="1" shape-rendering="crispEdges" fill="#b29e94ff"/><rect x="2" y="16" width="1" height="1" shape-rendering="crispEdges" fill="#b11f0eff"/><rect x="6" y="16" width="1" height="1" shape-rendering="crispEdges" fill="#000000ff"/><rect x="7" y="16" width="5" height="1" shape-rendering="crispEdges" fill="#97682fff"/><rect x="12" y="16" width="4" height="1" shape-rendering="crispEdges" fill="#ff9600ff"/><rect x="16" y="16" width="5" height="1" shape-rendering="crispEdges" fill="#efde92ff"/><rect x="21" y="16" width="1" height="1" shape-rendering="crispEdges" fill="#007627ff"/><rect x="3" y="17" width="2" height="1" shape-rendering="crispEdges" fill="#b11f0eff"/><rect x="6" y="17" width="1" height="1" shape-rendering="crispEdges" fill="#000000ff"/><rect x="7" y="17" width="9" height="1" shape-rendering="crispEdges" fill="#97682fff"/><rect x="16" y="17" width="1" height="1" shape-rendering="crispEdges" fill="#000000ff"/><rect x="2" y="18" width="1" height="1" shape-rendering="crispEdges" fill="#b11f0eff"/><rect x="4" y="18" width="10" height="1" shape-rendering="crispEdges" fill="#b11f0eff"/><rect x="14" y="18" width="2" height="1" shape-rendering="crispEdges" fill="#e22d1bff"/><rect x="16" y="18" width="1" height="1" shape-rendering="crispEdges" fill="#000000ff"/><rect x="3" y="19" width="1" height="1" shape-rendering="crispEdges" fill="#b11f0eff"/><rect x="5" y="19" width="6" height="1" shape-rendering="crispEdges" fill="#b11f0eff"/><rect x="11" y="19" width="5" height="1" shape-rendering="crispEdges" fill="#e22d1bff"/><rect x="16" y="19" width="1" height="1" shape-rendering="crispEdges" fill="#000000ff"/><rect x="2" y="20" width="1" height="1" shape-rendering="crispEdges" fill="#b11f0eff"/><rect x="6" y="20" width="1" height="1" shape-rendering="crispEdges" fill="#000000ff"/><rect x="7" y="20" width="9" height="1" shape-rendering="crispEdges" fill="#e22d1bff"/><rect x="16" y="20" width="1" height="1" shape-rendering="crispEdges" fill="#000000ff"/><rect x="6" y="21" width="1" height="1" shape-rendering="crispEdges" fill="#000000ff"/><rect x="7" y="21" width="9" height="1" shape-rendering="crispEdges" fill="#97682fff"/><rect x="16" y="21" width="1" height="1" shape-rendering="crispEdges" fill="#000000ff"/><rect x="6" y="22" width="1" height="1" shape-rendering="crispEdges" fill="#000000ff"/><rect x="7" y="22" width="9" height="1" shape-rendering="crispEdges" fill="#97682fff"/><rect x="16" y="22" width="1" height="1" shape-rendering="crispEdges" fill="#000000ff"/><rect x="6" y="23" width="1" height="1" shape-rendering="crispEdges" fill="#000000ff"/><rect x="7" y="23" width="9" height="1" shape-rendering="crispEdges" fill="#97682fff"/><rect x="16" y="23" width="1" height="1" shape-rendering="crispEdges" fill="#000000ff"/></svg>