<svg xmlns="http://www.w3.org/2000/svg" version="1.1" viewBox="0 0 24 24"><rect x="0" y="0" width="24" height="24" shape-rendering="crispEdges" fill="#8d756bff"/><rect x="8" y="5" width="7" height="1" shape-rendering="crispEdges" fill="#000000ff"/><rect x="7" y="6" width="1" height="1" shape-rendering="crispEdges" fill="#000000ff"/><rect x="8" y="6" width="1" height="1" shape-rendering="crispEdges" fill="#f7d60dff"/><rect x="9" y="6" width="1" height="1" shape-rendering="crispEdges" fill="#000000ff"/><rect x="10" y="6" width="1" height="1" shape-rendering="crispEdges" fill="#f7d60dff"/><rect x="11" y="6" width="1" height="1" shape-rendering="crispEdges" fill="#000000ff"/><rect x="12" y="6" width="1" height="1" shape-rendering="crispEdges" fill="#f7d60dff"/><rect x="13" y="6" width="1" height="1" shape-rendering="crispEdges" fill="#000000ff"/><rect x="14" y="6" width="1" height="1" shape-rendering="crispEdges" fill="#f7d60dff"/><rect x="15" y="6" width="1" height="1" shape-rendering="crispEdges" fill="#000000ff"/><rect x="6" y="7" width="1" height="1" shape-rendering="crispEdges" fill="#000000ff"/><rect x="7" y="7" width="2" height="1" shape-rendering="crispEdges" fill="#f7d60dff"/><rect x="9" y="7" width="1" height="1" shape-rendering="crispEdges" fill="#000000ff"/><rect x="10" y="7" width="1" height="1" shape-rendering="crispEdges" fill="#f7d60dff"/><rect x="11" y="7" width="1" height="1" shape-rendering="crispEdges" fill="#000000ff"/><rect x="12" y="7" width="1" height="1" shape-rendering="crispEdges" fill="#f7d60dff"/><rect x="13" y="7" width="1" height="1" shape-rendering="crispEdges" fill="#000000ff"/><rect x="14" y="7" width="2" height="1" shape-rendering="crispEdges" fill="#f7d60dff"/><rect x="16" y="7" width="1" height="1" shape-rendering="crispEdges" fill="#000000ff"/><rect x="6" y="8" width="1" height="1" shape-rendering="crispEdges" fill="#000000ff"/><rect x="7" y="8" width="1" height="1" shape-rendering="crispEdges" fill="#f7d60dff"/><rect x="8" y="8" width="1" height="1" shape-rendering="crispEdges" fill="#000000ff"/><rect x="9" y="8" width="1" height="1" shape-rendering="crispEdges" fill="#f7d60dff"/><rect x="10" y="8" width="1" height="1" shape-rendering="crispEdges" fill="#000000ff"/><rect x="11" y="8" width="3" height="1" shape-rendering="crispEdges" fill="#f7d60dff"/><rect x="14" y="8" width="1" height="1" shape-rendering="crispEdges" fill="#000000ff"/><rect x="15" y="8" width="1" height="1" shape-rendering="crispEdges" fill="#f7d60dff"/><rect x="16" y="8" width="1" height="1" shape-rendering="crispEdges" fill="#000000ff"/><rect x="6" y="9" width="1" height="1" shape-rendering="crispEdges" fill="#000000ff"/><rect x="7" y="9" width="1" height="1" shape-rendering="crispEdges" fill="#f7d60dff"/><rect x="8" y="9" width="1" height="1" shape-rendering="crispEdges" fill="#000000ff"/><rect x="9" y="9" width="2" height="1" shape-rendering="crispEdges" fill="#f7d60dff"/><rect x="11" y="9" width="1" height="1" shape-rendering="crispEdges" fill="#000000ff"/><rect x="12" y="9" width="2" height="1" shape-rendering="crispEdges" fill="#f7d60dff"/><rect x="14" y="9" width="1" height="1" shape-rendering="crispEdges" fill="#000000ff"/><rect x="15" y="9" width="1" height="1" shape-rendering="crispEdges" fill="#f7d60dff"/><rect x="16" y="9" width="1" height="1" shape-rendering="crispEdges" fill="#000000ff"/><rect x="6" y="10" width="1" height="1" shape-rendering="crispEdges" fill="#000000ff"/><rect x="7" y="10" width="9" height="1" shape-rendering="crispEdges" fill="#f7d60dff"/><rect x="16" y="10" width="1" height="1" shape-rendering="crispEdges" fill="#000000ff"/><rect x="6" y="11" width="1" height="1" shape-rendering="crispEdges" fill="#000000ff"/><rect x="7" y="11" width="9" height="1" shape-rendering="crispEdges" fill="#f7d60dff"/><rect x="16" y="11" width="1" height="1" shape-rendering="crispEdges" fill="#000000ff"/><rect x="22" y="11" width="1" height="1" shape-rendering="crispEdges" fill="#9b8e89ff"/><rect x="6" y="12" width="1" height="1" shape-rendering="crispEdges" fill="#000000ff"/><rect x="7" y="12" width="2" height="1" shape-rendering="crispEdges" fill="#f7d60dff"/><rect x="9" y="12" width="2" height="1" shape-rendering="crispEdges" fill="#b39c0aff"/><rect x="11" y="12" width="3" height="1" shape-rendering="crispEdges" fill="#f7d60dff"/><rect x="14" y="12" width="2" height="1" shape-rendering="crispEdges" fill="#b39c0aff"/><rect x="16" y="12" width="1" height="1" shape-rendering="crispEdges" fill="#000000ff"/><rect x="6" y="13" width="1" height="1" shape-rendering="crispEdges" fill="#000000ff"/><rect x="7" y="13" width="2" height="1" shape-rendering="crispEdges" fill="#f7d60dff"/><rect x="9" y="13" width="2" height="1" shape-rendering="crispEdges" fill="#000000ff"/><rect x="11" y="13" width="3" height="1" shape-rendering="crispEdges" fill="#f7d60dff"/><rect x="14" y="13" width="3" height="1" shape-rendering="crispEdges" fill="#000000ff"/><rect x="22" y="13" width="1" height="1" shape-rendering="crispEdges" fill="#9d928eff"/><rect x="6" y="14" width="1" height="1" shape-rendering="crispEdges" fill="#000000ff"/><rect x="7" y="14" width="5" height="1" shape-rendering="crispEdges" fill="#f7d60dff"/><rect x="12" y="14" width="7" height="1" shape-rendering="crispEdges" fill="#000000ff"/><rect x="23" y="14" width="1" height="1" shape-rendering="crispEdges" fill="#a19895ff"/><rect x="6" y="15" width="1" height="1" shape-rendering="crispEdges" fill="#000000ff"/><rect x="7" y="15" width="5" height="1" shape-rendering="crispEdges" fill="#f7d60dff"/><rect x="12" y="15" width="6" height="1" shape-rendering="crispEdges" fill="#ff9600ff"/><rect x="18" y="15" width="1" height="1" shape-rendering="crispEdges" fill="#000000ff"/><rect x="22" y="15" width="1" height="1" shape-rendering="crispEdges" fill="#a49d9aff"/><rect x="6" y="16" width="1" height="1" shape-rendering="crispEdges" fill="#000000ff"/><rect x="7" y="16" width="5" height="1" shape-rendering="crispEdges" fill="#f7d60dff"/><rect x="12" y="16" width="4" height="1" shape-rendering="crispEdges" fill="#ff9600ff"/><rect x="16" y="16" width="5" height="1" shape-rendering="crispEdges" fill="#efde92ff"/><rect x="21" y="16" width="1" height="1" shape-rendering="crispEdges" fill="#007627ff"/><rect x="6" y="17" width="1" height="1" shape-rendering="crispEdges" fill="#000000ff"/><rect x="7" y="17" width="9" height="1" shape-rendering="crispEdges" fill="#f7d60dff"/><rect x="16" y="17" width="1" height="1" shape-rendering="crispEdges" fill="#000000ff"/><rect x="6" y="18" width="1" height="1" shape-rendering="crispEdges" fill="#000000ff"/><rect x="7" y="18" width="9" height="1" shape-rendering="crispEdges" fill="#f7d60dff"/><rect x="16" y="18" width="1" height="1" shape-rendering="crispEdges" fill="#000000ff"/><rect x="6" y="19" width="1" height="1" shape-rendering="crispEdges" fill="#000000ff"/><rect x="7" y="19" width="9" height="1" shape-rendering="crispEdges" fill="#f7d60dff"/><rect x="16" y="19" width="1" height="1" shape-rendering="crispEdges" fill="#000000ff"/><rect x="6" y="20" width="1" height="1" shape-rendering="crispEdges" fill="#000000ff"/><rect x="7" y="20" width="9" height="1" shape-rendering="crispEdges" fill="#f7d60dff"/><rect x="16" y="20" width="1" height="1" shape-rendering="crispEdges" fill="#000000ff"/><rect x="6" y="21" width="1" height="1" shape-rendering="crispEdges" fill="#000000ff"/><rect x="7" y="21" width="9" height="1" shape-rendering="crispEdges" fill="#f7d60dff"/><rect x="16" y="21" width="1" height="1" shape-rendering="crispEdges" fill="#000000ff"/><rect x="6" y="22" width="1" height="1" shape-rendering="crispEdges" fill="#000000ff"/><rect x="7" y="22" width="9" height="1" shape-rendering="crispEdges" fill="#f7d60dff"/><rect x="16" y="22" width="1" height="1" shape-rendering="crispEdges" fill="#000000ff"/><rect x="6" y="23" width="1" height="1" shape-rendering="crispEdges" fill="#000000ff"/><rect x="7" y="23" width="9" height="1" shape-rendering="crispEdges" fill="#f7d60dff"/><rect x="16" y="23" width="1" height="1" shape-rendering="crispEdges" fill="#000000ff"/></svg>