<svg xmlns="http://www.w3.org/2000/svg" version="1.1" viewBox="0 0 24 24"><rect x="0" y="0" width="24" height="24" shape-rendering="crispEdges" fill="#ca7d4eff"/><rect x="8" y="5" width="7" height="1" shape-rendering="crispEdges" fill="#000000ff"/><rect x="7" y="6" width="1" height="1" shape-rendering="crispEdges" fill="#000000ff"/><rect x="8" y="6" width="7" height="1" shape-rendering="crispEdges" fill="#72a462ff"/><rect x="15" y="6" width="1" height="1" shape-rendering="crispEdges" fill="#000000ff"/><rect x="6" y="7" width="1" height="1" shape-rendering="crispEdges" fill="#000000ff"/><rect x="7" y="7" width="2" height="1" shape-rendering="crispEdges" fill="#72a462ff"/><rect x="9" y="7" width="4" height="1" shape-rendering="crispEdges" fill="#000000ff"/><rect x="13" y="7" width="1" height="1" shape-rendering="crispEdges" fill="#72a462ff"/><rect x="14" y="7" width="4" height="1" shape-rendering="crispEdges" fill="#000000ff"/><rect x="6" y="8" width="1" height="1" shape-rendering="crispEdges" fill="#000000ff"/><rect x="7" y="8" width="2" height="1" shape-rendering="crispEdges" fill="#72a462ff"/><rect x="9" y="8" width="1" height="1" shape-rendering="crispEdges" fill="#000000ff"/><rect x="10" y="8" width="2" height="1" shape-rendering="crispEdges" fill="#4cd191ff"/><rect x="12" y="8" width="1" height="1" shape-rendering="crispEdges" fill="#000000ff"/><rect x="13" y="8" width="1" height="1" shape-rendering="crispEdges" fill="#72a462ff"/><rect x="14" y="8" width="1" height="1" shape-rendering="crispEdges" fill="#000000ff"/><rect x="15" y="8" width="2" height="1" shape-rendering="crispEdges" fill="#4cd191ff"/><rect x="17" y="8" width="1" height="1" shape-rendering="crispEdges" fill="#000000ff"/><rect x="6" y="9" width="1" height="1" shape-rendering="crispEdges" fill="#000000ff"/><rect x="7" y="9" width="1" height="1" shape-rendering="crispEdges" fill="#72a462ff"/><rect x="8" y="9" width="2" height="1" shape-rendering="crispEdges" fill="#000000ff"/><rect x="10" y="9" width="2" height="1" shape-rendering="crispEdges" fill="#5afbafff"/><rect x="12" y="9" width="3" height="1" shape-rendering="crispEdges" fill="#000000ff"/><rect x="15" y="9" width="2" height="1" shape-rendering="crispEdges" fill="#5afbafff"/><rect x="17" y="9" width="1" height="1" shape-rendering="crispEdges" fill="#000000ff"/><rect x="6" y="10" width="2" height="1" shape-rendering="crispEdges" fill="#000000ff"/><rect x="8" y="10" width="1" height="1" shape-rendering="crispEdges" fill="#72a462ff"/><rect x="9" y="10" width="4" height="1" shape-rendering="crispEdges" fill="#000000ff"/><rect x="13" y="10" width="1" height="1" shape-rendering="crispEdges" fill="#72a462ff"/><rect x="14" y="10" width="4" height="1" shape-rendering="crispEdges" fill="#000000ff"/><rect x="6" y="11" width="1" height="1" shape-rendering="crispEdges" fill="#000000ff"/><rect x="7" y="11" width="2" height="1" shape-rendering="crispEdges" fill="#72a462ff"/><rect x="9" y="11" width="4" height="1" shape-rendering="crispEdges" fill="#000000ff"/><rect x="13" y="11" width="1" height="1" shape-rendering="crispEdges" fill="#72a462ff"/><rect x="14" y="11" width="4" height="1" shape-rendering="crispEdges" fill="#000000ff"/><rect x="6" y="12" width="1" height="1" shape-rendering="crispEdges" fill="#000000ff"/><rect x="7" y="12" width="2" height="1" shape-rendering="crispEdges" fill="#72a462ff"/><rect x="9" y="12" width="1" height="1" shape-rendering="crispEdges" fill="#000000ff"/><rect x="10" y="12" width="2" height="1" shape-rendering="crispEdges" fill="#ea5810ff"/><rect x="12" y="12" width="1" height="1" shape-rendering="crispEdges" fill="#000000ff"/><rect x="13" y="12" width="1" height="1" shape-rendering="crispEdges" fill="#72a462ff"/><rect x="14" y="12" width="1" height="1" shape-rendering="crispEdges" fill="#000000ff"/><rect x="15" y="12" width="2" height="1" shape-rendering="crispEdges" fill="#ea5810ff"/><rect x="17" y="12" width="1" height="1" shape-rendering="crispEdges" fill="#000000ff"/><rect x="6" y="13" width="1" height="1" shape-rendering="crispEdges" fill="#000000ff"/><rect x="7" y="13" width="2" height="1" shape-rendering="crispEdges" fill="#72a462ff"/><rect x="9" y="13" width="1" height="1" shape-rendering="crispEdges" fill="#000000ff"/><rect x="10" y="13" width="2" height="1" shape-rendering="crispEdges" fill="#ea7037ff"/><rect x="12" y="13" width="3" height="1" shape-rendering="crispEdges" fill="#000000ff"/><rect x="15" y="13" width="2" height="1" shape-rendering="crispEdges" fill="#ea7037ff"/><rect x="17" y="13" width="1" height="1" shape-rendering="crispEdges" fill="#000000ff"/><rect x="6" y="14" width="1" height="1" shape-rendering="crispEdges" fill="#000000ff"/><rect x="7" y="14" width="2" height="1" shape-rendering="crispEdges" fill="#e0e5e7ff"/><rect x="9" y="14" width="4" height="1" shape-rendering="crispEdges" fill="#000000ff"/><rect x="13" y="14" width="1" height="1" shape-rendering="crispEdges" fill="#e0e5e7ff"/><rect x="14" y="14" width="4" height="1" shape-rendering="crispEdges" fill="#000000ff"/><rect x="18" y="14" width="1" height="1" shape-rendering="crispEdges" fill="#e0e5e7ff"/><rect x="6" y="15" width="1" height="1" shape-rendering="crispEdges" fill="#000000ff"/><rect x="7" y="15" width="5" height="1" shape-rendering="crispEdges" fill="#72a462ff"/><rect x="12" y="15" width="5" height="1" shape-rendering="crispEdges" fill="#8ee8ffff"/><rect x="17" y="15" width="1" height="1" shape-rendering="crispEdges" fill="#83e2fbff"/><rect x="18" y="15" width="1" height="1" shape-rendering="crispEdges" fill="#69cbe2ff"/><rect x="6" y="16" width="1" height="1" shape-rendering="crispEdges" fill="#000000ff"/><rect x="7" y="16" width="5" height="1" shape-rendering="crispEdges" fill="#72a462ff"/><rect x="12" y="16" width="5" height="1" shape-rendering="crispEdges" fill="#8ee8ffff"/><rect x="17" y="16" width="1" height="1" shape-rendering="crispEdges" fill="#83e2fbff"/><rect x="18" y="16" width="1" height="1" shape-rendering="crispEdges" fill="#69cbe2ff"/><rect x="6" y="17" width="1" height="1" shape-rendering="crispEdges" fill="#000000ff"/><rect x="7" y="17" width="11" height="1" shape-rendering="crispEdges" fill="#e0e5e7ff"/><rect x="6" y="18" width="1" height="1" shape-rendering="crispEdges" fill="#000000ff"/><rect x="7" y="18" width="9" height="1" shape-rendering="crispEdges" fill="#72a462ff"/><rect x="16" y="18" width="1" height="1" shape-rendering="crispEdges" fill="#000000ff"/><rect x="6" y="19" width="1" height="1" shape-rendering="crispEdges" fill="#000000ff"/><rect x="7" y="19" width="9" height="1" shape-rendering="crispEdges" fill="#72a462ff"/><rect x="16" y="19" width="1" height="1" shape-rendering="crispEdges" fill="#000000ff"/><rect x="6" y="20" width="1" height="1" shape-rendering="crispEdges" fill="#000000ff"/><rect x="7" y="20" width="9" height="1" shape-rendering="crispEdges" fill="#72a462ff"/><rect x="16" y="20" width="1" height="1" shape-rendering="crispEdges" fill="#000000ff"/><rect x="6" y="21" width="1" height="1" shape-rendering="crispEdges" fill="#000000ff"/><rect x="7" y="21" width="9" height="1" shape-rendering="crispEdges" fill="#72a462ff"/><rect x="16" y="21" width="1" height="1" shape-rendering="crispEdges" fill="#000000ff"/><rect x="6" y="22" width="1" height="1" shape-rendering="crispEdges" fill="#000000ff"/><rect x="7" y="22" width="9" height="1" shape-rendering="crispEdges" fill="#72a462ff"/><rect x="16" y="22" width="1" height="1" shape-rendering="crispEdges" fill="#000000ff"/><rect x="6" y="23" width="1" height="1" shape-rendering="crispEdges" fill="#000000ff"/><rect x="7" y="23" width="9" height="1" shape-rendering="crispEdges" fill="#72a462ff"/><rect x="16" y="23" width="1" height="1" shape-rendering="crispEdges" fill="#000000ff"/></svg>